0, 0, Header, 1, 1, 1024
1, 0, Start_track
1, 0, Title_t, "1"
1, 0, Note_on_c, 0, 69, 65
1, 512, Note_on_c, 0, 40, 65
1, 512, Note_on_c, 0, 31, 65
1, 512, Note_on_c, 0, 72, 65
1, 512, Note_off_c, 0, 69, 0
1, 512, Note_on_c, 0, 75, 65
1, 512, Note_on_c, 0, 69, 65
1, 512, Note_on_c, 0, 67, 65
1, 1024, Note_on_c, 0, 39, 65
1, 1024, Note_off_c, 0, 40, 0
1, 1024, Note_off_c, 0, 31, 0
1, 1536, Note_off_c, 0, 39, 0
1, 1536, Note_off_c, 0, 67, 0
1, 1536, Note_off_c, 0, 75, 0
1, 1536, Note_off_c, 0, 69, 0
1, 1536, Note_on_c, 0, 70, 65
1, 1536, Note_on_c, 0, 75, 65
1, 1536, Note_on_c, 0, 77, 65
1, 1536, Note_on_c, 0, 81, 65
1, 1536, Note_on_c, 0, 46, 65
1, 1556, Note_off_c, 0, 72, 0
1, 2048, Note_on_c, 0, 51, 65
1, 2057, Note_off_c, 0, 70, 0
1, 2057, Note_off_c, 0, 75, 0
1, 2057, Note_off_c, 0, 77, 0
1, 2057, Note_off_c, 0, 81, 0
1, 2057, Note_off_c, 0, 46, 0
1, 2560, Note_on_c, 0, 51, 65
1, 2560, Note_on_c, 0, 43, 65
1, 2569, Note_off_c, 0, 51, 0
1, 3584, Note_on_c, 0, 77, 65
1, 3584, Note_on_c, 0, 74, 65
1, 3584, Note_off_c, 0, 43, 0
1, 3584, Note_on_c, 0, 69, 65
1, 3604, Note_off_c, 0, 51, 0
1, 4608, Note_off_c, 0, 74, 0
1, 4608, Note_on_c, 0, 38, 65
1, 4608, Note_on_c, 0, 26, 65
1, 4608, Note_on_c, 0, 81, 65
1, 4608, Note_on_c, 0, 79, 65
1, 4608, Note_on_c, 0, 74, 65
1, 4608, Note_off_c, 0, 77, 0
1, 4628, Note_off_c, 0, 69, 0
1, 5632, Note_off_c, 0, 74, 0
1, 5632, Note_off_c, 0, 79, 0
1, 5632, Note_on_c, 0, 72, 65
1, 5632, Note_on_c, 0, 46, 65
1, 5632, Note_on_c, 0, 51, 65
1, 5632, Note_off_c, 0, 38, 0
1, 5632, Note_off_c, 0, 26, 0
1, 5652, Note_off_c, 0, 81, 0
1, 6153, Note_off_c, 0, 72, 0
1, 6656, Note_on_c, 0, 38, 65
1, 6656, Note_on_c, 0, 34, 65
1, 6656, Note_off_c, 0, 51, 0
1, 6656, Note_on_c, 0, 75, 65
1, 6656, Note_off_c, 0, 46, 0
1, 7177, Note_off_c, 0, 75, 0
1, 7680, Note_off_c, 0, 34, 0
1, 7680, Note_off_c, 0, 38, 0
1, 7680, Note_on_c, 0, 79, 65
1, 8192, Note_on_c, 0, 39, 65
1, 8192, Note_on_c, 0, 27, 65
1, 8192, Note_on_c, 0, 70, 65
1, 8201, Note_off_c, 0, 79, 0
1, 8713, Note_off_c, 0, 70, 0
1, 9216, Note_on_c, 0, 54, 65
1, 9216, Note_on_c, 0, 70, 65
1, 9216, Note_on_c, 0, 82, 65
1, 9216, Note_on_c, 0, 43, 65
1, 9216, Note_on_c, 0, 48, 65
1, 9216, Note_on_c, 0, 79, 65
1, 9216, Note_on_c, 0, 75, 65
1, 9216, Note_off_c, 0, 39, 0
1, 9216, Note_off_c, 0, 27, 0
1, 9728, Note_on_c, 0, 82, 65
1, 9728, Note_off_c, 0, 54, 0
1, 9728, Note_off_c, 0, 48, 0
1, 9728, Note_on_c, 0, 78, 65
1, 9728, Note_on_c, 0, 82, 65
1, 9728, Note_on_c, 0, 39, 65
1, 9728, Note_on_c, 0, 75, 65
1, 9728, Note_off_c, 0, 43, 0
1, 10240, Note_on_c, 0, 63, 65
1, 10240, Note_off_c, 0, 39, 0
1, 10240, Note_off_c, 0, 79, 0
1, 10240, Note_off_c, 0, 75, 0
1, 10260, Note_off_c, 0, 82, 0
1, 10260, Note_off_c, 0, 70, 0
1, 10752, Note_off_c, 0, 82, 0
1, 10752, Note_off_c, 0, 78, 0
1, 10752, Note_off_c, 0, 75, 0
1, 10752, Note_off_c, 0, 82, 0
1, 10752, Note_on_c, 0, 75, 65
1, 10761, Note_off_c, 0, 63, 0
1, 11264, Note_on_c, 0, 77, 65
1, 11264, Note_on_c, 0, 48, 65
1, 11264, Note_on_c, 0, 81, 65
1, 11264, Note_on_c, 0, 57, 65
1, 11273, Note_off_c, 0, 75, 0
1, 11520, Note_on_c, 0, 53, 65
1, 11520, Note_off_c, 0, 48, 0
1, 11520, Note_off_c, 0, 57, 0
1, 11776, Note_on_c, 0, 53, 65
1, 11776, Note_off_c, 0, 53, 0
1, 11785, Note_off_c, 0, 77, 0
1, 11785, Note_off_c, 0, 81, 0
1, 12032, Note_off_c, 0, 53, 0
1, 12032, Note_on_c, 0, 81, 65
1, 12032, Note_on_c, 0, 74, 65
1, 12032, Note_on_c, 0, 69, 65
1, 12032, Note_on_c, 0, 77, 65
1, 12032, Note_on_c, 0, 65, 65
1, 12032, Note_on_c, 0, 78, 65
1, 12544, Note_on_c, 0, 38, 65
1, 12544, Note_on_c, 0, 77, 65
1, 12544, Note_on_c, 0, 81, 65
1, 12544, Note_on_c, 0, 72, 65
1, 12544, Note_on_c, 0, 26, 65
1, 12544, Note_on_c, 0, 74, 65
1, 13568, Note_off_c, 0, 26, 0
1, 13568, Note_off_c, 0, 38, 0
1, 13568, Note_on_c, 0, 57, 65
1, 14080, Note_off_c, 0, 77, 0
1, 14080, Note_off_c, 0, 74, 0
1, 14108, Note_off_c, 0, 81, 0
1, 14108, Note_off_c, 0, 72, 0
1, 14434, Note_off_c, 0, 65, 0
1, 14464, Note_off_c, 0, 69, 0
1, 14464, Note_off_c, 0, 74, 0
1, 14464, Note_off_c, 0, 78, 0
1, 14464, Note_off_c, 0, 77, 0
1, 14464, Note_off_c, 0, 81, 0
1, 14592, Note_off_c, 0, 57, 0
1, 14592, Note_on_c, 0, 53, 65
1, 14592, Note_on_c, 0, 86, 65
1, 14592, Note_on_c, 0, 74, 65
1, 15104, Note_on_c, 0, 74, 65
1, 15104, Note_on_c, 0, 69, 65
1, 15104, Note_on_c, 0, 73, 65
1, 15104, Note_on_c, 0, 70, 65
1, 15104, Note_on_c, 0, 77, 65
1, 15104, Note_off_c, 0, 74, 0
1, 15104, Note_on_c, 0, 82, 65
1, 15104, Note_on_c, 0, 65, 65
1, 15113, Note_off_c, 0, 86, 0
1, 15616, Note_off_c, 0, 53, 0
1, 15616, Note_on_c, 0, 39, 65
1, 15616, Note_on_c, 0, 27, 65
1, 16640, Note_off_c, 0, 39, 0
1, 16640, Note_on_c, 0, 82, 65
1, 16640, Note_on_c, 0, 46, 65
1, 16640, Note_off_c, 0, 27, 0
1, 17152, Note_on_c, 0, 50, 65
1, 17152, Note_off_c, 0, 46, 0
1, 17152, Note_on_c, 0, 77, 65
1, 17161, Note_off_c, 0, 82, 0
1, 17536, Note_off_c, 0, 65, 0
1, 17536, Note_off_c, 0, 73, 0
1, 17536, Note_off_c, 0, 74, 0
1, 17536, Note_off_c, 0, 82, 0
1, 17536, Note_off_c, 0, 77, 0
1, 17536, Note_off_c, 0, 70, 0
1, 17664, Note_on_c, 0, 50, 65
1, 17664, Note_off_c, 0, 77, 0
1, 17664, Note_off_c, 0, 50, 0
1, 17664, Note_on_c, 0, 74, 65
1, 18148, Note_off_c, 0, 74, 0
1, 18176, Note_on_c, 0, 72, 65
1, 18176, Note_on_c, 0, 39, 65
1, 18560, Note_off_c, 0, 69, 0
1, 18688, Note_on_c, 0, 70, 65
1, 18688, Note_off_c, 0, 50, 0
1, 18688, Note_on_c, 0, 51, 65
1, 18688, Note_on_c, 0, 84, 65
1, 18688, Note_on_c, 0, 79, 65
1, 18688, Note_on_c, 0, 74, 65
1, 18688, Note_on_c, 0, 55, 65
1, 18688, Note_off_c, 0, 39, 0
1, 18697, Note_off_c, 0, 72, 0
1, 19712, Note_on_c, 0, 70, 65
1, 19712, Note_on_c, 0, 74, 65
1, 19712, Note_off_c, 0, 55, 0
1, 19712, Note_on_c, 0, 77, 65
1, 19712, Note_on_c, 0, 82, 65
1, 19712, Note_on_c, 0, 50, 65
1, 19712, Note_off_c, 0, 51, 0
1, 19732, Note_off_c, 0, 70, 0
1, 19732, Note_off_c, 0, 84, 0
1, 19732, Note_off_c, 0, 79, 0
1, 19732, Note_off_c, 0, 74, 0
1, 20224, Note_on_c, 0, 76, 65
1, 20224, Note_off_c, 0, 50, 0
1, 20736, Note_off_c, 0, 82, 0
1, 20736, Note_off_c, 0, 77, 0
1, 20736, Note_off_c, 0, 74, 0
1, 20736, Note_on_c, 0, 84, 65
1, 20736, Note_on_c, 0, 82, 65
1, 20736, Note_on_c, 0, 69, 65
1, 20745, Note_off_c, 0, 76, 0
1, 20756, Note_off_c, 0, 70, 0
1, 21248, Note_on_c, 0, 38, 65
1, 21248, Note_on_c, 0, 26, 65
1, 21248, Note_on_c, 0, 62, 65
1, 21257, Note_off_c, 0, 82, 0
1, 21257, Note_off_c, 0, 84, 0
1, 21257, Note_off_c, 0, 69, 0
1, 21760, Note_on_c, 0, 31, 65
1, 21760, Note_on_c, 0, 72, 65
1, 21760, Note_on_c, 0, 40, 65
1, 21760, Note_on_c, 0, 62, 65
1, 21760, Note_on_c, 0, 67, 65
1, 21769, Note_off_c, 0, 62, 0
1, 22272, Note_off_c, 0, 38, 0
1, 22272, Note_off_c, 0, 26, 0
1, 22272, Note_on_c, 0, 52, 65
1, 22272, Note_off_c, 0, 40, 0
1, 22281, Note_off_c, 0, 31, 0
1, 22756, Note_off_c, 0, 52, 0
1, 22784, Note_on_c, 0, 64, 65
1, 22784, Note_on_c, 0, 67, 65
1, 22804, Note_off_c, 0, 62, 0
1, 22804, Note_off_c, 0, 67, 0
1, 22804, Note_off_c, 0, 72, 0
1, 23296, Note_on_c, 0, 58, 65
1, 23296, Note_on_c, 0, 82, 65
1, 23296, Note_on_c, 0, 63, 65
1, 23808, Note_off_c, 0, 64, 0
1, 23808, Note_off_c, 0, 67, 0
1, 24320, Note_off_c, 0, 63, 0
1, 24320, Note_off_c, 0, 58, 0
1, 24320, Note_on_c, 0, 53, 65
1, 24320, Note_on_c, 0, 50, 65
1, 24320, Note_on_c, 0, 74, 65
1, 24320, Note_on_c, 0, 77, 65
1, 24320, Note_on_c, 0, 81, 65
1, 24320, Note_on_c, 0, 45, 65
1, 24841, Note_off_c, 0, 81, 0
1, 24841, Note_off_c, 0, 77, 0
1, 24841, Note_off_c, 0, 74, 0
1, 25344, Note_on_c, 0, 74, 65
1, 25344, Note_off_c, 0, 45, 0
1, 25344, Note_off_c, 0, 53, 0
1, 25344, Note_off_c, 0, 50, 0
1, 25344, Note_off_c, 0, 82, 0
1, 25344, Note_on_c, 0, 78, 65
1, 26368, Note_off_c, 0, 74, 0
1, 26368, Note_off_c, 0, 78, 0
1, 26368, Note_on_c, 0, 67, 65
1, 26368, Note_on_c, 0, 76, 65
1, 27392, Note_on_c, 0, 75, 65
1, 27392, Note_off_c, 0, 67, 0
1, 27392, Note_off_c, 0, 76, 0
1, 27392, Note_on_c, 0, 81, 65
1, 28160, Note_off_c, 0, 75, 0
1, 28160, Note_off_c, 0, 81, 0
1, 28416, Note_on_c, 0, 74, 65
1, 28416, Note_on_c, 0, 69, 65
1, 29440, Note_off_c, 0, 69, 0
1, 29440, Note_on_c, 0, 76, 65
1, 29440, Note_off_c, 0, 74, 0
1, 29440, Note_on_c, 0, 61, 65
1, 30976, Note_on_c, 0, 64, 65
1, 30976, Note_on_c, 0, 61, 65
1, 30976, Note_on_c, 0, 57, 65
1, 30976, Note_off_c, 0, 76, 0
1, 30976, Note_off_c, 0, 61, 0
1, 32000, Note_on_c, 0, 67, 65
1, 32000, Note_off_c, 0, 61, 0
1, 32000, Note_off_c, 0, 57, 0
1, 32000, Note_off_c, 0, 64, 0
1, 33024, Note_on_c, 0, 66, 65
1, 33024, Note_off_c, 0, 67, 0
1, 34048, Note_on_c, 0, 64, 65
1, 34048, Note_off_c, 0, 66, 0
1, 35072, Note_on_c, 0, 64, 65
1, 35072, Note_off_c, 0, 64, 0
1, 36096, Note_on_c, 0, 64, 65
1, 36096, Note_off_c, 0, 64, 0
1, 37120, Note_on_c, 0, 55, 65
1, 37120, Note_on_c, 0, 59, 65
1, 37120, Note_on_c, 0, 55, 65
1, 37632, Note_off_c, 0, 64, 0
1, 38656, Note_on_c, 0, 59, 65
1, 38656, Note_on_c, 0, 55, 65
1, 38656, Note_off_c, 0, 55, 0
1, 38656, Note_off_c, 0, 59, 0
1, 38656, Note_off_c, 0, 55, 0
1, 38656, Note_on_c, 0, 62, 65
1, 40192, Note_on_c, 0, 55, 65
1, 40192, Note_off_c, 0, 55, 0
1, 40192, Note_on_c, 0, 59, 65
1, 40192, Note_off_c, 0, 62, 0
1, 40192, Note_on_c, 0, 62, 65
1, 40192, Note_off_c, 0, 59, 0
1, 41728, Note_off_c, 0, 62, 0
1, 41728, Note_off_c, 0, 59, 0
1, 41728, Note_off_c, 0, 55, 0
1, 41728, Note_on_c, 0, 62, 65
1, 41728, Note_on_c, 0, 59, 65
1, 41728, Note_on_c, 0, 55, 65
1, 43264, Note_off_c, 0, 55, 0
1, 43264, Note_off_c, 0, 62, 0
1, 43264, Note_off_c, 0, 59, 0
1, 43264, Note_on_c, 0, 62, 65
1, 43264, Note_on_c, 0, 55, 65
1, 43264, Note_on_c, 0, 59, 65
1, 44800, Note_on_c, 0, 55, 65
1, 44800, Note_off_c, 0, 55, 0
1, 44800, Note_on_c, 0, 62, 65
1, 44800, Note_on_c, 0, 59, 65
1, 44800, Note_off_c, 0, 59, 0
1, 44800, Note_off_c, 0, 62, 0
1, 46336, Note_on_c, 0, 62, 65
1, 46336, Note_on_c, 0, 59, 65
1, 46336, Note_on_c, 0, 55, 65
1, 46336, Note_off_c, 0, 55, 0
1, 46336, Note_off_c, 0, 59, 0
1, 46336, Note_off_c, 0, 62, 0
1, 47360, Note_on_c, 0, 65, 65
1, 47360, Note_off_c, 0, 55, 0
1, 47360, Note_off_c, 0, 59, 0
1, 47360, Note_off_c, 0, 62, 0
1, 47360, Note_on_c, 0, 58, 65
1, 47360, Note_on_c, 0, 62, 65
1, 48384, Note_on_c, 0, 65, 65
1, 48384, Note_off_c, 0, 58, 0
1, 48384, Note_off_c, 0, 62, 0
1, 48384, Note_off_c, 0, 65, 0
1, 48384, Note_on_c, 0, 62, 65
1, 49408, Note_off_c, 0, 65, 0
1, 49408, Note_on_c, 0, 59, 65
1, 49408, Note_off_c, 0, 62, 0
1, 49408, Note_on_c, 0, 62, 65
1, 49408, Note_on_c, 0, 55, 65
1, 50432, Note_on_c, 0, 55, 65
1, 50432, Note_on_c, 0, 59, 65
1, 50432, Note_on_c, 0, 62, 65
1, 50432, Note_off_c, 0, 59, 0
1, 50432, Note_off_c, 0, 62, 0
1, 50432, Note_off_c, 0, 55, 0
1, 51968, Note_off_c, 0, 55, 0
1, 51968, Note_off_c, 0, 59, 0
1, 51968, Note_off_c, 0, 62, 0
1, 52480, Note_on_c, 0, 62, 65
1, 52480, Note_on_c, 0, 59, 65
1, 52480, Note_on_c, 0, 55, 65
1, 54016, Note_off_c, 0, 59, 0
1, 54016, Note_on_c, 0, 60, 65
1, 54016, Note_on_c, 0, 48, 65
1, 54016, Note_off_c, 0, 55, 0
1, 54016, Note_off_c, 0, 62, 0
1, 54016, Note_on_c, 0, 67, 65
1, 54528, Note_on_c, 0, 48, 65
1, 54528, Note_on_c, 0, 53, 65
1, 54528, Note_on_c, 0, 60, 65
1, 54537, Note_off_c, 0, 48, 0
1, 55040, Note_on_c, 0, 70, 65
1, 55552, Note_off_c, 0, 60, 0
1, 55552, Note_off_c, 0, 67, 0
1, 55552, Note_off_c, 0, 60, 0
1, 55552, Note_off_c, 0, 48, 0
1, 55552, Note_off_c, 0, 53, 0
1, 55552, Note_on_c, 0, 39, 65
1, 55552, Note_on_c, 0, 74, 65
1, 55561, Note_off_c, 0, 70, 0
1, 56064, Note_on_c, 0, 55, 65
1, 56064, Note_on_c, 0, 63, 65
1, 56064, Note_on_c, 0, 82, 65
1, 56064, Note_off_c, 0, 39, 0
1, 56073, Note_off_c, 0, 74, 0
1, 56576, Note_on_c, 0, 72, 65
1, 57088, Note_off_c, 0, 55, 0
1, 57088, Note_on_c, 0, 74, 65
1, 57097, Note_off_c, 0, 72, 0
1, 57600, Note_on_c, 0, 53, 65
1, 57600, Note_on_c, 0, 48, 65
1, 57600, Note_on_c, 0, 58, 65
1, 57600, Note_on_c, 0, 77, 65
1, 57609, Note_off_c, 0, 74, 0
1, 58112, Note_on_c, 0, 77, 65
1, 58112, Note_off_c, 0, 63, 0
1, 58112, Note_on_c, 0, 53, 65
1, 58112, Note_on_c, 0, 50, 65
1, 58112, Note_on_c, 0, 45, 65
1, 58112, Note_on_c, 0, 74, 65
1, 58112, Note_on_c, 0, 69, 65
1, 58112, Note_off_c, 0, 48, 0
1, 58112, Note_off_c, 0, 58, 0
1, 58112, Note_off_c, 0, 53, 0
1, 58112, Note_off_c, 0, 82, 0
1, 58121, Note_off_c, 0, 77, 0
1, 58624, Note_off_c, 0, 74, 0
1, 58624, Note_off_c, 0, 69, 0
1, 58633, Note_off_c, 0, 77, 0
1, 59136, Note_off_c, 0, 53, 0
1, 59136, Note_off_c, 0, 50, 0
1, 59136, Note_off_c, 0, 45, 0
1, 59136, Note_on_c, 0, 87, 65
1, 59136, Note_on_c, 0, 79, 65
1, 59136, Note_on_c, 0, 72, 65
1, 59136, Note_on_c, 0, 29, 65
1, 59136, Note_on_c, 0, 41, 65
1, 59136, Note_on_c, 0, 82, 65
1, 59392, Note_on_c, 0, 77, 65
1, 59648, Note_on_c, 0, 79, 65
1, 59648, Note_on_c, 0, 50, 65
1, 59648, Note_off_c, 0, 82, 0
1, 59652, Note_off_c, 0, 77, 0
1, 59904, Note_on_c, 0, 65, 65
1, 59904, Note_off_c, 0, 50, 0
1, 59908, Note_off_c, 0, 79, 0
1, 60160, Note_on_c, 0, 69, 65
1, 60160, Note_on_c, 0, 46, 65
1, 60160, Note_off_c, 0, 29, 0
1, 60160, Note_off_c, 0, 41, 0
1, 60164, Note_off_c, 0, 65, 0
1, 60329, Note_on_c, 0, 89, 65
1, 60329, Note_on_c, 0, 29, 65
1, 60329, Note_on_c, 0, 41, 65
1, 60329, Note_on_c, 0, 81, 65
1, 60329, Note_on_c, 0, 72, 65
1, 60669, Note_off_c, 0, 89, 0
1, 60669, Note_on_c, 0, 69, 65
1, 60669, Note_on_c, 0, 48, 65
1, 60672, Note_off_c, 0, 46, 0
1, 60674, Note_off_c, 0, 81, 0
1, 60674, Note_off_c, 0, 72, 0
1, 60681, Note_off_c, 0, 69, 0
1, 61014, Note_off_c, 0, 69, 0
1, 61130, Note_off_c, 0, 48, 0
1, 61181, Note_on_c, 0, 53, 65
1, 61181, Note_on_c, 0, 79, 65
1, 61184, Note_off_c, 0, 72, 0
1, 61184, Note_off_c, 0, 87, 0
1, 61225, Note_off_c, 0, 79, 0
1, 61353, Note_off_c, 0, 29, 0
1, 61353, Note_off_c, 0, 41, 0
1, 61642, Note_off_c, 0, 79, 0
1, 61642, Note_off_c, 0, 53, 0
1, 61693, Note_on_c, 0, 81, 65
1, 61693, Note_on_c, 0, 53, 65
1, 62154, Note_off_c, 0, 81, 0
1, 62154, Note_off_c, 0, 53, 0
1, 62205, Note_on_c, 0, 53, 65
1, 62205, Note_on_c, 0, 81, 65
1, 62666, Note_off_c, 0, 81, 0
1, 62666, Note_off_c, 0, 53, 0
1, 62717, Note_on_c, 0, 48, 65
1, 62717, Note_on_c, 0, 84, 65
1, 63178, Note_off_c, 0, 48, 0
1, 63178, Note_off_c, 0, 84, 0
1, 63229, Note_on_c, 0, 84, 65
1, 63229, Note_on_c, 0, 57, 65
1, 63690, Note_off_c, 0, 84, 0
1, 63690, Note_off_c, 0, 57, 0
1, 63741, Note_on_c, 0, 79, 65
1, 63741, Note_on_c, 0, 45, 65
1, 64202, Note_off_c, 0, 45, 0
1, 64202, Note_off_c, 0, 79, 0
1, 64253, Note_on_c, 0, 43, 65
1, 64714, Note_off_c, 0, 43, 0
1, 64765, Note_on_c, 0, 46, 65
1, 65226, Note_off_c, 0, 46, 0
1, 65277, Note_on_c, 0, 48, 65
1, 65738, Note_off_c, 0, 48, 0
1, 65789, Note_on_c, 0, 84, 65
1, 65789, Note_on_c, 0, 65, 65
1, 66250, Note_off_c, 0, 65, 0
1, 66250, Note_off_c, 0, 84, 0
1, 66301, Note_on_c, 0, 54, 65
1, 66301, Note_on_c, 0, 69, 65
1, 66762, Note_off_c, 0, 69, 0
1, 66762, Note_off_c, 0, 54, 0
1, 66813, Note_on_c, 0, 52, 65
1, 67274, Note_off_c, 0, 52, 0
1, 67325, Note_on_c, 0, 49, 65
1, 67325, Note_on_c, 0, 76, 65
1, 67786, Note_off_c, 0, 76, 0
1, 67786, Note_off_c, 0, 49, 0
1, 67837, Note_on_c, 0, 78, 65
1, 67837, Note_on_c, 0, 56, 65
1, 68298, Note_off_c, 0, 56, 0
1, 68298, Note_off_c, 0, 78, 0
1, 68349, Note_on_c, 0, 56, 65
1, 68349, Note_on_c, 0, 71, 65
1, 68810, Note_off_c, 0, 71, 0
1, 68810, Note_off_c, 0, 56, 0
1, 68861, Note_on_c, 0, 49, 65
1, 68861, Note_on_c, 0, 78, 65
1, 69322, Note_off_c, 0, 78, 0
1, 69322, Note_off_c, 0, 49, 0
1, 69373, Note_on_c, 0, 71, 65
1, 69373, Note_on_c, 0, 52, 65
1, 69834, Note_off_c, 0, 71, 0
1, 69834, Note_off_c, 0, 52, 0
1, 69885, Note_on_c, 0, 76, 65
1, 69885, Note_on_c, 0, 49, 65
1, 70346, Note_off_c, 0, 76, 0
1, 70346, Note_off_c, 0, 49, 0
1, 70397, Note_on_c, 0, 78, 65
1, 70397, Note_on_c, 0, 54, 65
1, 70858, Note_off_c, 0, 54, 0
1, 70858, Note_off_c, 0, 78, 0
1, 70909, Note_on_c, 0, 76, 65
1, 70909, Note_on_c, 0, 56, 65
1, 71370, Note_off_c, 0, 76, 0
1, 71370, Note_off_c, 0, 56, 0
1, 71421, Note_on_c, 0, 52, 65
1, 71421, Note_on_c, 0, 83, 65
1, 71882, Note_off_c, 0, 52, 0
1, 71933, Note_on_c, 0, 52, 65
1, 72343, Note_off_c, 0, 83, 0
1, 72394, Note_off_c, 0, 52, 0
1, 72445, Note_on_c, 0, 47, 65
1, 72906, Note_off_c, 0, 47, 0
1, 72957, Note_on_c, 0, 52, 65
1, 73418, Note_off_c, 0, 52, 0
1, 73469, Note_on_c, 0, 78, 65
1, 73469, Note_on_c, 0, 45, 65
1, 73930, Note_off_c, 0, 78, 0
1, 73930, Note_off_c, 0, 45, 0
1, 73981, Note_on_c, 0, 83, 65
1, 73981, Note_on_c, 0, 56, 65
1, 74442, Note_off_c, 0, 83, 0
1, 74442, Note_off_c, 0, 56, 0
1, 74493, Note_on_c, 0, 71, 65
1, 74493, Note_on_c, 0, 52, 65
1, 74954, Note_off_c, 0, 71, 0
1, 74954, Note_off_c, 0, 52, 0
1, 75005, Note_on_c, 0, 78, 65
1, 75005, Note_on_c, 0, 44, 65
1, 75466, Note_off_c, 0, 78, 0
1, 75466, Note_off_c, 0, 44, 0
1, 75517, Note_on_c, 0, 51, 65
1, 75517, Note_on_c, 0, 76, 65
1, 75978, Note_off_c, 0, 76, 0
1, 75978, Note_off_c, 0, 51, 0
1, 76029, Note_on_c, 0, 78, 65
1, 76029, Note_on_c, 0, 44, 65
1, 76029, Note_on_c, 0, 52, 65
1, 76490, Note_off_c, 0, 52, 0
1, 76490, Note_off_c, 0, 44, 0
1, 76490, Note_off_c, 0, 78, 0
1, 76541, Note_on_c, 0, 80, 65
1, 76541, Note_on_c, 0, 49, 65
1, 77002, Note_off_c, 0, 80, 0
1, 77002, Note_off_c, 0, 49, 0
1, 77053, Note_on_c, 0, 76, 65
1, 77053, Note_on_c, 0, 56, 65
1, 77514, Note_off_c, 0, 56, 0
1, 77514, Note_off_c, 0, 76, 0
1, 77565, Note_on_c, 0, 76, 65
1, 77565, Note_on_c, 0, 52, 65
1, 78026, Note_off_c, 0, 52, 0
1, 78026, Note_off_c, 0, 76, 0
1, 78077, Note_on_c, 0, 76, 65
1, 78077, Note_on_c, 0, 45, 65
1, 78538, Note_off_c, 0, 45, 0
1, 78589, Note_on_c, 0, 54, 65
1, 78999, Note_off_c, 0, 76, 0
1, 79050, Note_off_c, 0, 54, 0
1, 79101, Note_on_c, 0, 49, 65
1, 79101, Note_on_c, 0, 76, 65
1, 79562, Note_off_c, 0, 76, 0
1, 79562, Note_off_c, 0, 49, 0
1, 79613, Note_on_c, 0, 47, 65
1, 79613, Note_on_c, 0, 71, 65
1, 80074, Note_off_c, 0, 47, 0
1, 80074, Note_off_c, 0, 71, 0
1, 80125, Note_on_c, 0, 83, 65
1, 80125, Note_on_c, 0, 51, 65
1, 80586, Note_off_c, 0, 83, 0
1, 80586, Note_off_c, 0, 51, 0
1, 80637, Note_on_c, 0, 54, 65
1, 80637, Note_on_c, 0, 78, 65
1, 81098, Note_off_c, 0, 78, 0
1, 81098, Note_off_c, 0, 54, 0
1, 81149, Note_on_c, 0, 45, 65
1, 81149, Note_on_c, 0, 64, 65
1, 81610, Note_off_c, 0, 64, 0
1, 81610, Note_off_c, 0, 45, 0
1, 81661, Note_on_c, 0, 78, 65
1, 81661, Note_on_c, 0, 56, 65
1, 82122, Note_off_c, 0, 78, 0
1, 82122, Note_off_c, 0, 56, 0
1, 82173, Note_on_c, 0, 56, 65
1, 82173, Note_on_c, 0, 76, 65
1, 82634, Note_off_c, 0, 76, 0
1, 82634, Note_off_c, 0, 56, 0
1, 82685, Note_on_c, 0, 71, 65
1, 82685, Note_on_c, 0, 52, 65
1, 83146, Note_off_c, 0, 71, 0
1, 83146, Note_off_c, 0, 52, 0
1, 83197, Note_on_c, 0, 78, 65
1, 83197, Note_on_c, 0, 56, 65
1, 83658, Note_off_c, 0, 56, 0
1, 83658, Note_off_c, 0, 78, 0
1, 83709, Note_on_c, 0, 83, 65
1, 83709, Note_on_c, 0, 59, 65
1, 84170, Note_off_c, 0, 59, 0
1, 84170, Note_off_c, 0, 83, 0
1, 84221, Note_on_c, 0, 52, 65
1, 84682, Note_off_c, 0, 52, 0
1, 84733, Note_on_c, 0, 52, 65
1, 84733, Note_on_c, 0, 78, 65
1, 85194, Note_off_c, 0, 78, 0
1, 85194, Note_off_c, 0, 52, 0
1, 85245, Note_on_c, 0, 49, 65
1, 85245, Note_on_c, 0, 71, 65
1, 85706, Note_off_c, 0, 49, 0
1, 85757, Note_on_c, 0, 52, 65
1, 86167, Note_off_c, 0, 71, 0
1, 86218, Note_off_c, 0, 52, 0
1, 86269, Note_on_c, 0, 52, 65
1, 86269, Note_on_c, 0, 71, 65
1, 86730, Note_off_c, 0, 71, 0
1, 86730, Note_off_c, 0, 52, 0
1, 86781, Note_on_c, 0, 52, 65
1, 86781, Note_on_c, 0, 78, 65
1, 87242, Note_off_c, 0, 78, 0
1, 87242, Note_off_c, 0, 52, 0
1, 87293, Note_on_c, 0, 71, 65
1, 87293, Note_on_c, 0, 56, 65
1, 87754, Note_off_c, 0, 71, 0
1, 87754, Note_off_c, 0, 56, 0
1, 87805, Note_on_c, 0, 56, 65
1, 87805, Note_on_c, 0, 76, 65
1, 88266, Note_off_c, 0, 76, 0
1, 88266, Note_off_c, 0, 56, 0
1, 88317, Note_on_c, 0, 52, 65
1, 88317, Note_on_c, 0, 76, 65
1, 88778, Note_off_c, 0, 52, 0
1, 88778, Note_off_c, 0, 76, 0
1, 88829, Note_on_c, 0, 51, 65
1, 88829, Note_on_c, 0, 76, 65
1, 89290, Note_off_c, 0, 51, 0
1, 89290, Note_off_c, 0, 76, 0
1, 89341, Note_on_c, 0, 47, 65
1, 89341, Note_on_c, 0, 76, 65
1, 89802, Note_off_c, 0, 76, 0
1, 89802, Note_off_c, 0, 47, 0
1, 89853, Note_on_c, 0, 51, 65
1, 89853, Note_on_c, 0, 83, 65
1, 90314, Note_off_c, 0, 83, 0
1, 90314, Note_off_c, 0, 51, 0
1, 90365, Note_on_c, 0, 52, 65
1, 90365, Note_on_c, 0, 76, 65
1, 90826, Note_off_c, 0, 52, 0
1, 90826, Note_off_c, 0, 76, 0
1, 90877, Note_on_c, 0, 44, 65
1, 90877, Note_on_c, 0, 71, 65
1, 91338, Note_off_c, 0, 71, 0
1, 91338, Note_off_c, 0, 44, 0
1, 91389, Note_on_c, 0, 51, 65
1, 91389, Note_on_c, 0, 76, 65
1, 91850, Note_off_c, 0, 51, 0
1, 91850, Note_off_c, 0, 76, 0
1, 91901, Note_on_c, 0, 52, 65
1, 91901, Note_on_c, 0, 71, 65
1, 92362, Note_off_c, 0, 52, 0
1, 92362, Note_off_c, 0, 71, 0
1, 92413, Note_on_c, 0, 71, 65
1, 92413, Note_on_c, 0, 44, 65
1, 92874, Note_off_c, 0, 71, 0
1, 92874, Note_off_c, 0, 44, 0
1, 92925, Note_on_c, 0, 52, 65
1, 92925, Note_on_c, 0, 76, 65
1, 93898, Note_off_c, 0, 76, 0
1, 94973, Note_on_c, 0, 76, 65
1, 95280, Note_off_c, 0, 52, 0
1, 95895, Note_off_c, 0, 76, 0
1, 95997, Note_on_c, 0, 60, 65
1, 95997, Note_on_c, 0, 76, 65
1, 97533, Note_on_c, 0, 64, 65
1, 97533, Note_off_c, 0, 60, 0
1, 97819, Note_off_c, 0, 76, 0
1, 98045, Note_on_c, 0, 64, 65
1, 98045, Note_off_c, 0, 64, 0
1, 99069, Note_on_c, 0, 61, 65
1, 99069, Note_off_c, 0, 64, 0
1, 100093, Note_off_c, 0, 61, 0
1, 100093, Note_on_c, 0, 57, 65
1, 101117, Note_on_c, 0, 62, 65
1, 101117, Note_off_c, 0, 57, 0
1, 102141, Note_on_c, 0, 57, 65
1, 102141, Note_off_c, 0, 62, 0
1, 103165, Note_on_c, 0, 61, 65
1, 103165, Note_off_c, 0, 57, 0
1, 104189, Note_on_c, 0, 66, 65
1, 104189, Note_off_c, 0, 61, 0
1, 105213, Note_on_c, 0, 64, 65
1, 105213, Note_off_c, 0, 66, 0
1, 106237, Note_on_c, 0, 67, 65
1, 106237, Note_off_c, 0, 64, 0
1, 108285, Note_off_c, 0, 67, 0
1, 108285, Note_on_c, 0, 76, 65
1, 110333, Note_on_c, 0, 73, 65
1, 110333, Note_off_c, 0, 76, 0
1, 110845, Note_off_c, 0, 73, 0
1, 111357, Note_on_c, 0, 74, 65
1, 112381, Note_off_c, 0, 74, 0
1, 112381, Note_on_c, 0, 79, 65
1, 113405, Note_off_c, 0, 79, 0
1, 113405, Note_on_c, 0, 74, 65
1, 114429, Note_off_c, 0, 74, 0
1, 114429, Note_on_c, 0, 76, 65
1, 115453, Note_off_c, 0, 76, 0
1, 115453, Note_on_c, 0, 78, 65
1, 115965, Note_on_c, 0, 74, 65
1, 115965, Note_off_c, 0, 78, 0
1, 117501, Note_on_c, 0, 73, 65
1, 117501, Note_off_c, 0, 74, 0
1, 118525, Note_on_c, 0, 73, 65
1, 118525, Note_off_c, 0, 73, 0
1, 120061, Note_off_c, 0, 73, 0
1, 120061, Note_on_c, 0, 76, 65
1, 120573, Note_off_c, 0, 76, 0
1, 120573, Note_on_c, 0, 74, 65
1, 121597, Note_off_c, 0, 74, 0
1, 121597, Note_on_c, 0, 44, 65
1, 121597, Note_on_c, 0, 87, 65
1, 121597, Note_on_c, 0, 72, 65
1, 121597, Note_on_c, 0, 79, 65
1, 121597, Note_on_c, 0, 72, 65
1, 122621, Note_off_c, 0, 79, 0
1, 122621, Note_on_c, 0, 51, 65
1, 122621, Note_off_c, 0, 44, 0
1, 122621, Note_off_c, 0, 87, 0
1, 122641, Note_off_c, 0, 72, 0
1, 122641, Note_off_c, 0, 72, 0
1, 123133, Note_on_c, 0, 77, 65
1, 123133, Note_on_c, 0, 60, 65
1, 123617, Note_off_c, 0, 77, 0
1, 123645, Note_off_c, 0, 51, 0
1, 123645, Note_on_c, 0, 82, 65
1, 123645, Note_on_c, 0, 77, 65
1, 123645, Note_on_c, 0, 82, 65
1, 123645, Note_on_c, 0, 86, 65
1, 124157, Note_on_c, 0, 28, 65
1, 124157, Note_on_c, 0, 40, 65
1, 124669, Note_off_c, 0, 60, 0
1, 124669, Note_on_c, 0, 43, 65
1, 124669, Note_off_c, 0, 40, 0
1, 124669, Note_off_c, 0, 28, 0
1, 125181, Note_off_c, 0, 77, 0
1, 125181, Note_on_c, 0, 69, 65
1, 125181, Note_off_c, 0, 43, 0
1, 125209, Note_off_c, 0, 82, 0
1, 125209, Note_off_c, 0, 82, 0
1, 125209, Note_off_c, 0, 86, 0
1, 125693, Note_on_c, 0, 58, 65
1, 125693, Note_on_c, 0, 48, 65
1, 125693, Note_on_c, 0, 53, 65
1, 125693, Note_on_c, 0, 65, 65
1, 125702, Note_off_c, 0, 69, 0
1, 126205, Note_on_c, 0, 51, 65
1, 126205, Note_on_c, 0, 74, 65
1, 126205, Note_off_c, 0, 48, 0
1, 126205, Note_off_c, 0, 53, 0
1, 126205, Note_off_c, 0, 58, 0
1, 126205, Note_on_c, 0, 43, 65
1, 126205, Note_on_c, 0, 46, 65
1, 126214, Note_off_c, 0, 65, 0
1, 126726, Note_off_c, 0, 74, 0
1, 127229, Note_off_c, 0, 51, 0
1, 127229, Note_off_c, 0, 46, 0
1, 127229, Note_off_c, 0, 43, 0
1, 127229, Note_on_c, 0, 39, 65
1, 127741, Note_on_c, 0, 63, 65
1, 127741, Note_off_c, 0, 39, 0
1, 127741, Note_on_c, 0, 41, 65
1, 128253, Note_on_c, 0, 48, 65
1, 128253, Note_off_c, 0, 41, 0
1, 128253, Note_on_c, 0, 65, 65
1, 128262, Note_off_c, 0, 63, 0
1, 128765, Note_off_c, 0, 48, 0
1, 128765, Note_on_c, 0, 60, 65
1, 128765, Note_on_c, 0, 46, 65
1, 128765, Note_on_c, 0, 50, 65
1, 128765, Note_on_c, 0, 53, 65
1, 128774, Note_off_c, 0, 65, 0
1, 129277, Note_on_c, 0, 77, 65
1, 129277, Note_on_c, 0, 81, 65
1, 129277, Note_on_c, 0, 86, 65
1, 129277, Note_on_c, 0, 86, 65
1, 129277, Note_on_c, 0, 91, 65
1, 129277, Note_on_c, 0, 26, 65
1, 129277, Note_on_c, 0, 38, 65
1, 129277, Note_off_c, 0, 50, 0
1, 129277, Note_off_c, 0, 46, 0
1, 129277, Note_off_c, 0, 53, 0
1, 129277, Note_on_c, 0, 65, 65
1, 129277, Note_on_c, 0, 81, 65
1, 129286, Note_off_c, 0, 60, 0
1, 129798, Note_off_c, 0, 65, 0
1, 129798, Note_off_c, 0, 86, 0
1, 129798, Note_off_c, 0, 81, 0
1, 129798, Note_off_c, 0, 86, 0
1, 129798, Note_off_c, 0, 91, 0
1, 129798, Note_off_c, 0, 77, 0
1, 129798, Note_off_c, 0, 81, 0
1, 130301, Note_on_c, 0, 50, 65
1, 130301, Note_on_c, 0, 53, 65
1, 130301, Note_off_c, 0, 26, 0
1, 130301, Note_off_c, 0, 38, 0
1, 130813, Note_on_c, 0, 45, 65
1, 130813, Note_on_c, 0, 50, 65
1, 130813, Note_off_c, 0, 53, 0
1, 130813, Note_on_c, 0, 41, 65
1, 130813, Note_off_c, 0, 50, 0
1, 130813, Note_on_c, 0, 55, 65
1, 130813, Note_on_c, 0, 60, 65
1, 131325, Note_on_c, 0, 65, 65
1, 131325, Note_on_c, 0, 77, 65
1, 131325, Note_on_c, 0, 36, 65
1, 131325, Note_off_c, 0, 45, 0
1, 131325, Note_off_c, 0, 50, 0
1, 131325, Note_off_c, 0, 55, 0
1, 131325, Note_off_c, 0, 41, 0
1, 131334, Note_off_c, 0, 60, 0
1, 131837, Note_on_c, 0, 48, 65
1, 131837, Note_on_c, 0, 53, 65
1, 131837, Note_on_c, 0, 70, 65
1, 131837, Note_off_c, 0, 36, 0
1, 131837, Note_on_c, 0, 82, 65
1, 131846, Note_off_c, 0, 77, 0
1, 131846, Note_off_c, 0, 65, 0
1, 132093, Note_on_c, 0, 45, 65
1, 132093, Note_off_c, 0, 53, 0
1, 132093, Note_off_c, 0, 48, 0
1, 132349, Note_off_c, 0, 45, 0
1, 132349, Note_on_c, 0, 84, 65
1, 132349, Note_on_c, 0, 77, 65
1, 132349, Note_on_c, 0, 36, 65
1, 132349, Note_on_c, 0, 82, 65
1, 132358, Note_off_c, 0, 82, 0
1, 132358, Note_off_c, 0, 70, 0
1, 132861, Note_on_c, 0, 27, 65
1, 132861, Note_on_c, 0, 82, 65
1, 132861, Note_on_c, 0, 77, 65
1, 132861, Note_on_c, 0, 74, 65
1, 132861, Note_on_c, 0, 70, 65
1, 132861, Note_off_c, 0, 36, 0
1, 132861, Note_on_c, 0, 39, 65
1, 132870, Note_off_c, 0, 77, 0
1, 132870, Note_off_c, 0, 84, 0
1, 132870, Note_off_c, 0, 82, 0
1, 133382, Note_off_c, 0, 82, 0
1, 133382, Note_off_c, 0, 77, 0
1, 133382, Note_off_c, 0, 74, 0
1, 133382, Note_off_c, 0, 70, 0
1, 133885, Note_on_c, 0, 50, 65
1, 133885, Note_on_c, 0, 75, 65
1, 133885, Note_on_c, 0, 78, 65
1, 133885, Note_on_c, 0, 82, 65
1, 133885, Note_off_c, 0, 27, 0
1, 133885, Note_off_c, 0, 39, 0
1, 133885, Note_on_c, 0, 70, 65
1, 134141, Note_on_c, 0, 46, 65
1, 134145, Note_off_c, 0, 50, 0
1, 134397, Note_on_c, 0, 51, 65
1, 134401, Note_off_c, 0, 46, 0
1, 134406, Note_off_c, 0, 70, 0
1, 134406, Note_off_c, 0, 78, 0
1, 134406, Note_off_c, 0, 82, 0
1, 134406, Note_off_c, 0, 75, 0
1, 134653, Note_on_c, 0, 55, 65
1, 134657, Note_off_c, 0, 51, 0
1, 134909, Note_on_c, 0, 57, 65
1, 134909, Note_on_c, 0, 46, 65
1, 134909, Note_on_c, 0, 82, 65
1, 134909, Note_on_c, 0, 53, 65
1, 134909, Note_on_c, 0, 50, 65
1, 134913, Note_off_c, 0, 55, 0
1, 135149, Note_off_c, 0, 82, 0
1, 135421, Note_off_c, 0, 57, 0
1, 135421, Note_off_c, 0, 53, 0
1, 135421, Note_off_c, 0, 50, 0
1, 135421, Note_on_c, 0, 38, 65
1, 135430, Note_off_c, 0, 46, 0
1, 135933, Note_on_c, 0, 54, 65
1, 135933, Note_on_c, 0, 51, 65
1, 135933, Note_on_c, 0, 46, 65
1, 135933, Note_on_c, 0, 82, 65
1, 135933, Note_off_c, 0, 38, 0
1, 136445, Note_off_c, 0, 46, 0
1, 136445, Note_off_c, 0, 54, 0
1, 136445, Note_off_c, 0, 51, 0
1, 136454, Note_off_c, 0, 82, 0
1, 136957, Note_on_c, 0, 52, 65
1, 136957, Note_on_c, 0, 81, 65
1, 136957, Note_on_c, 0, 74, 65
1, 136957, Note_on_c, 0, 46, 65
1, 137469, Note_on_c, 0, 69, 65
1, 137981, Note_off_c, 0, 46, 0
1, 137981, Note_on_c, 0, 74, 65
1, 137981, Note_on_c, 0, 50, 65
1, 137981, Note_on_c, 0, 55, 65
1, 137981, Note_off_c, 0, 52, 0
1, 137990, Note_off_c, 0, 69, 0
1, 138493, Note_on_c, 0, 60, 65
1, 138493, Note_on_c, 0, 58, 65
1, 138493, Note_on_c, 0, 67, 65
1, 138493, Note_on_c, 0, 70, 65
1, 138493, Note_on_c, 0, 79, 65
1, 138493, Note_on_c, 0, 82, 65
1, 138493, Note_on_c, 0, 86, 65
1, 138493, Note_on_c, 0, 74, 65
1, 138502, Note_off_c, 0, 74, 0
1, 139005, Note_on_c, 0, 40, 65
1, 139005, Note_off_c, 0, 55, 0
1, 139005, Note_off_c, 0, 50, 0
1, 139005, Note_off_c, 0, 74, 0
1, 139006, Note_off_c, 0, 81, 0
1, 139517, Note_off_c, 0, 40, 0
1, 139517, Note_on_c, 0, 43, 65
1, 139686, Note_on_c, 0, 81, 65
1, 139773, Note_off_c, 0, 43, 0
1, 139834, Note_on_c, 0, 86, 65
1, 140029, Note_off_c, 0, 86, 0
1, 140029, Note_off_c, 0, 60, 0
1, 140029, Note_off_c, 0, 58, 0
1, 140029, Note_off_c, 0, 67, 0
1, 140033, Note_off_c, 0, 81, 0
1, 140057, Note_off_c, 0, 70, 0
1, 140057, Note_off_c, 0, 74, 0
1, 140057, Note_off_c, 0, 79, 0
1, 140057, Note_off_c, 0, 82, 0
1, 140177, Note_on_c, 0, 72, 65
1, 140177, Note_on_c, 0, 58, 65
1, 140181, Note_off_c, 0, 86, 0
1, 140689, Note_off_c, 0, 58, 0
1, 140698, Note_off_c, 0, 72, 0
1, 140699, End_track
0, 0, End_of_file
