0, 0, Header, 1, 1, 1024
1, 0, Start_track
1, 0, Title_t, "1"
1, 0, Note_on_c, 0, 69, 65
1, 512, Note_off_c, 0, 69, 0
1, 512, Note_on_c, 0, 75, 65
1, 1024, Note_on_c, 0, 76, 65
1, 1033, Note_off_c, 0, 75, 0
1, 1485, Note_off_c, 0, 76, 0
1, 1536, Note_on_c, 0, 80, 65
1, 1536, Note_on_c, 0, 75, 65
1, 1536, Note_on_c, 0, 61, 65
1, 1792, Note_off_c, 0, 61, 0
1, 2048, Note_on_c, 0, 76, 65
1, 2048, Note_on_c, 0, 71, 65
1, 2048, Note_on_c, 0, 76, 65
1, 2177, Note_off_c, 0, 80, 0
1, 2304, Note_off_c, 0, 76, 0
1, 2304, Note_off_c, 0, 75, 0
1, 2304, Note_off_c, 0, 76, 0
1, 2304, Note_off_c, 0, 71, 0
1, 2304, Note_on_c, 0, 71, 65
1, 2560, Note_off_c, 0, 71, 0
1, 4352, Note_on_c, 0, 71, 65
1, 5120, Note_on_c, 0, 71, 65
1, 5120, Note_off_c, 0, 71, 0
1, 5632, Note_off_c, 0, 71, 0
1, 5632, Note_on_c, 0, 71, 65
1, 5632, Note_on_c, 0, 76, 65
1, 5632, Note_on_c, 0, 49, 65
1, 6144, Note_off_c, 0, 49, 0
1, 6144, Note_on_c, 0, 78, 65
1, 6144, Note_on_c, 0, 52, 65
1, 6400, Note_off_c, 0, 52, 0
1, 6400, Note_off_c, 0, 71, 0
1, 6400, Note_on_c, 0, 59, 65
1, 6400, Note_off_c, 0, 76, 0
1, 6656, Note_on_c, 0, 67, 65
1, 6656, Note_off_c, 0, 78, 0
1, 6656, Note_off_c, 0, 59, 0
1, 7168, Note_on_c, 0, 80, 65
1, 7168, Note_off_c, 0, 67, 0
1, 8192, Note_off_c, 0, 80, 0
1, 9216, Note_on_c, 0, 69, 65
1, 9216, Note_on_c, 0, 81, 65
1, 9984, Note_off_c, 0, 81, 0
1, 9984, Note_off_c, 0, 69, 0
1, 10240, Note_on_c, 0, 66, 65
1, 10240, Note_on_c, 0, 74, 65
1, 11776, Note_on_c, 0, 62, 65
1, 11776, Note_on_c, 0, 54, 65
1, 11776, Note_off_c, 0, 66, 0
1, 11776, Note_off_c, 0, 74, 0
1, 11776, Note_on_c, 0, 57, 65
1, 12288, Note_off_c, 0, 54, 0
1, 12288, Note_off_c, 0, 57, 0
1, 12288, Note_off_c, 0, 62, 0
1, 12800, Note_on_c, 0, 57, 65
1, 12800, Note_on_c, 0, 61, 65
1, 12800, Note_on_c, 0, 64, 65
1, 13312, Note_off_c, 0, 61, 0
1, 13312, Note_off_c, 0, 57, 0
1, 13312, Note_off_c, 0, 64, 0
1, 13824, Note_on_c, 0, 62, 65
1, 13824, Note_on_c, 0, 55, 65
1, 13824, Note_on_c, 0, 59, 65
1, 16384, Note_off_c, 0, 55, 0
1, 16384, Note_off_c, 0, 59, 0
1, 16384, Note_on_c, 0, 62, 65
1, 16384, Note_off_c, 0, 62, 0
1, 16384, Note_on_c, 0, 57, 65
1, 16384, Note_on_c, 0, 54, 65
1, 17920, Note_on_c, 0, 57, 65
1, 17920, Note_on_c, 0, 54, 65
1, 17920, Note_off_c, 0, 62, 0
1, 17920, Note_off_c, 0, 57, 0
1, 17920, Note_off_c, 0, 54, 0
1, 17920, Note_on_c, 0, 62, 65
1, 18432, Note_off_c, 0, 62, 0
1, 18432, Note_off_c, 0, 54, 0
1, 18432, Note_off_c, 0, 57, 0
1, 18944, Note_on_c, 0, 62, 65
1, 18944, Note_on_c, 0, 59, 65
1, 18944, Note_on_c, 0, 55, 65
1, 20480, Note_on_c, 0, 55, 65
1, 20480, Note_off_c, 0, 59, 0
1, 20480, Note_off_c, 0, 55, 0
1, 20480, Note_on_c, 0, 59, 65
1, 20480, Note_on_c, 0, 62, 65
1, 20480, Note_off_c, 0, 62, 0
1, 22016, Note_on_c, 0, 59, 65
1, 22016, Note_on_c, 0, 62, 65
1, 22016, Note_off_c, 0, 59, 0
1, 22016, Note_off_c, 0, 62, 0
1, 22016, Note_on_c, 0, 67, 65
1, 22016, Note_off_c, 0, 55, 0
1, 23040, Note_on_c, 0, 63, 65
1, 23040, Note_on_c, 0, 66, 65
1, 23040, Note_off_c, 0, 62, 0
1, 23040, Note_off_c, 0, 59, 0
1, 23040, Note_off_c, 0, 67, 0
1, 23552, Note_on_c, 0, 69, 65
1, 23552, Note_off_c, 0, 63, 0
1, 23552, Note_off_c, 0, 66, 0
1, 24064, Note_off_c, 0, 69, 0
1, 24064, Note_on_c, 0, 68, 65
1, 24576, Note_on_c, 0, 62, 65
1, 24576, Note_off_c, 0, 68, 0
1, 25600, Note_off_c, 0, 62, 0
1, 26112, Note_on_c, 0, 62, 65
1, 28160, Note_on_c, 0, 62, 65
1, 28160, Note_off_c, 0, 62, 0
1, 29184, Note_off_c, 0, 62, 0
1, 29184, Note_on_c, 0, 57, 65
1, 30208, Note_on_c, 0, 62, 65
1, 30208, Note_off_c, 0, 57, 0
1, 31232, Note_on_c, 0, 57, 65
1, 31232, Note_off_c, 0, 62, 0
1, 32256, Note_off_c, 0, 57, 0
1, 32256, Note_on_c, 0, 62, 65
1, 33280, Note_off_c, 0, 62, 0
1, 33280, Note_on_c, 0, 57, 65
1, 34816, Note_on_c, 0, 61, 65
1, 34816, Note_off_c, 0, 57, 0
1, 35328, Note_off_c, 0, 61, 0
1, 35328, Note_on_c, 0, 68, 65
1, 35840, Note_off_c, 0, 68, 0
1, 35840, Note_on_c, 0, 66, 65
1, 36864, Note_off_c, 0, 66, 0
1, 36864, Note_on_c, 0, 66, 65
1, 37888, Note_on_c, 0, 66, 65
1, 37888, Note_off_c, 0, 66, 0
1, 39424, Note_on_c, 0, 64, 65
1, 39424, Note_off_c, 0, 66, 0
1, 39936, Note_on_c, 0, 64, 65
1, 39936, Note_off_c, 0, 64, 0
1, 41472, Note_on_c, 0, 64, 65
1, 41472, Note_off_c, 0, 64, 0
1, 41984, Note_on_c, 0, 64, 65
1, 41984, Note_off_c, 0, 64, 0
1, 42496, Note_off_c, 0, 64, 0
1, 42496, Note_on_c, 0, 64, 65
1, 43520, Note_on_c, 0, 62, 65
1, 43520, Note_off_c, 0, 64, 0
1, 44544, Note_on_c, 0, 69, 65
1, 44544, Note_off_c, 0, 62, 0
1, 45568, Note_on_c, 0, 78, 65
1, 45568, Note_off_c, 0, 69, 0
1, 46592, Note_on_c, 0, 78, 65
1, 46592, Note_off_c, 0, 78, 0
1, 48128, Note_off_c, 0, 78, 0
1, 48128, Note_on_c, 0, 74, 65
1, 48640, Note_off_c, 0, 74, 0
1, 48640, Note_on_c, 0, 74, 65
1, 49152, Note_off_c, 0, 74, 0
1, 49664, Note_on_c, 0, 66, 65
1, 50688, Note_off_c, 0, 66, 0
1, 50688, Note_on_c, 0, 69, 65
1, 51712, Note_on_c, 0, 78, 65
1, 51712, Note_off_c, 0, 69, 0
1, 52736, Note_off_c, 0, 78, 0
1, 52736, Note_on_c, 0, 74, 65
1, 53760, Note_off_c, 0, 74, 0
1, 53760, Note_on_c, 0, 76, 65
1, 54784, Note_off_c, 0, 76, 0
1, 54784, Note_on_c, 0, 78, 65
1, 55296, Note_off_c, 0, 78, 0
1, 55296, Note_on_c, 0, 76, 65
1, 56320, Note_on_c, 0, 76, 65
1, 56320, Note_off_c, 0, 76, 0
1, 57344, Note_on_c, 0, 74, 65
1, 57344, Note_off_c, 0, 76, 0
1, 58368, Note_on_c, 0, 74, 65
1, 58368, Note_off_c, 0, 74, 0
1, 59392, Note_off_c, 0, 74, 0
1, 59392, Note_on_c, 0, 76, 65
1, 60416, Note_on_c, 0, 74, 65
1, 60416, Note_off_c, 0, 76, 0
1, 61440, Note_off_c, 0, 74, 0
1, 61440, Note_on_c, 0, 76, 65
1, 62464, Note_on_c, 0, 78, 65
1, 62464, Note_off_c, 0, 76, 0
1, 64000, Note_on_c, 0, 74, 65
1, 64000, Note_off_c, 0, 78, 0
1, 64512, Note_on_c, 0, 74, 65
1, 64512, Note_off_c, 0, 74, 0
1, 65024, Note_off_c, 0, 74, 0
1, 65536, Note_on_c, 0, 66, 65
1, 66560, Note_off_c, 0, 66, 0
1, 66560, Note_on_c, 0, 78, 65
1, 67584, Note_off_c, 0, 78, 0
1, 67584, Note_on_c, 0, 78, 65
1, 68096, Note_off_c, 0, 78, 0
1, 68096, Note_on_c, 0, 78, 65
1, 70656, Note_off_c, 0, 78, 0
1, 71680, Note_on_c, 0, 69, 65
1, 72704, Note_off_c, 0, 69, 0
1, 72704, Note_on_c, 0, 74, 65
1, 73728, Note_on_c, 0, 76, 65
1, 73728, Note_off_c, 0, 74, 0
1, 74752, Note_on_c, 0, 78, 65
1, 74752, Note_off_c, 0, 76, 0
1, 75776, Note_on_c, 0, 74, 65
1, 75776, Note_off_c, 0, 78, 0
1, 76288, Note_on_c, 0, 74, 65
1, 76288, Note_off_c, 0, 74, 0
1, 77824, Note_off_c, 0, 74, 0
1, 77824, Note_on_c, 0, 76, 65
1, 78848, Note_off_c, 0, 76, 0
1, 78848, Note_on_c, 0, 74, 65
1, 79360, Note_on_c, 0, 74, 65
1, 79360, Note_off_c, 0, 74, 0
1, 80896, Note_on_c, 0, 73, 65
1, 80896, Note_off_c, 0, 74, 0
1, 81408, Note_on_c, 0, 73, 65
1, 81408, Note_off_c, 0, 73, 0
1, 81920, Note_on_c, 0, 76, 65
1, 81920, Note_off_c, 0, 73, 0
1, 83456, Note_on_c, 0, 76, 65
1, 83456, Note_off_c, 0, 76, 0
1, 83968, Note_off_c, 0, 76, 0
1, 83968, Note_on_c, 0, 74, 65
1, 84992, Note_off_c, 0, 74, 0
1, 84992, Note_on_c, 0, 74, 65
1, 86016, Note_on_c, 0, 76, 65
1, 86016, Note_off_c, 0, 74, 0
1, 87040, Note_off_c, 0, 76, 0
1, 87040, Note_on_c, 0, 74, 65
1, 87808, Note_off_c, 0, 74, 0
1, 88064, Note_on_c, 0, 74, 65
1, 88576, Note_on_c, 0, 76, 65
1, 88576, Note_off_c, 0, 74, 0
1, 89088, Note_on_c, 0, 78, 65
1, 89088, Note_off_c, 0, 76, 0
1, 90112, Note_on_c, 0, 74, 65
1, 90112, Note_off_c, 0, 78, 0
1, 90624, Note_on_c, 0, 74, 65
1, 90624, Note_off_c, 0, 74, 0
1, 91136, Note_on_c, 0, 76, 65
1, 91136, Note_off_c, 0, 74, 0
1, 91648, Note_on_c, 0, 74, 65
1, 91648, Note_off_c, 0, 76, 0
1, 93184, Note_off_c, 0, 74, 0
1, 94184, Note_on_c, 0, 73, 65
1, 95720, Note_on_c, 0, 69, 65
1, 95720, Note_off_c, 0, 73, 0
1, 96232, Note_on_c, 0, 57, 65
1, 96232, Note_off_c, 0, 69, 0
1, 100328, Note_off_c, 0, 57, 0
1, 103436, Note_on_c, 0, 69, 65
1, 106508, Note_off_c, 0, 69, 0
1, 107532, Note_on_c, 0, 67, 65
1, 108556, Note_off_c, 0, 67, 0
1, 108556, Note_on_c, 0, 66, 65
1, 109580, Note_off_c, 0, 66, 0
1, 109580, Note_on_c, 0, 67, 65
1, 110604, Note_off_c, 0, 67, 0
1, 110604, Note_on_c, 0, 69, 65
1, 111628, Note_off_c, 0, 69, 0
1, 111628, Note_on_c, 0, 74, 65
1, 112652, Note_off_c, 0, 74, 0
1, 112652, Note_on_c, 0, 76, 65
1, 113676, Note_off_c, 0, 76, 0
1, 113676, Note_on_c, 0, 78, 65
1, 114188, Note_off_c, 0, 78, 0
1, 114188, Note_on_c, 0, 78, 65
1, 116748, Note_off_c, 0, 78, 0
1, 117772, Note_on_c, 0, 81, 65
1, 117772, Note_on_c, 0, 76, 65
1, 118284, Note_off_c, 0, 76, 0
1, 118796, Note_on_c, 0, 69, 65
1, 118796, Note_on_c, 0, 69, 65
1, 118796, Note_on_c, 0, 73, 65
1, 119308, Note_off_c, 0, 81, 0
1, 119820, Note_off_c, 0, 69, 0
1, 119820, Note_off_c, 0, 73, 0
1, 119820, Note_off_c, 0, 69, 0
1, 119820, Note_on_c, 0, 69, 65
1, 119820, Note_on_c, 0, 74, 65
1, 121356, Note_on_c, 0, 78, 65
1, 121356, Note_on_c, 0, 69, 65
1, 121356, Note_off_c, 0, 74, 0
1, 121386, Note_off_c, 0, 69, 0
1, 122380, Note_on_c, 0, 74, 65
1, 122380, Note_on_c, 0, 66, 65
1, 122380, Note_off_c, 0, 78, 0
1, 122380, Note_off_c, 0, 69, 0
1, 123404, Note_off_c, 0, 66, 0
1, 123404, Note_on_c, 0, 76, 65
1, 123404, Note_off_c, 0, 74, 0
1, 123404, Note_on_c, 0, 67, 65
1, 124428, Note_off_c, 0, 67, 0
1, 124428, Note_off_c, 0, 76, 0
1, 124428, Note_on_c, 0, 66, 65
1, 124428, Note_on_c, 0, 74, 65
1, 125196, Note_off_c, 0, 74, 0
1, 125196, Note_off_c, 0, 66, 0
1, 125452, Note_on_c, 0, 74, 65
1, 125452, Note_on_c, 0, 66, 65
1, 126220, Note_off_c, 0, 74, 0
1, 126220, Note_off_c, 0, 66, 0
1, 126476, Note_on_c, 0, 74, 65
1, 126476, Note_on_c, 0, 57, 65
1, 126476, Note_on_c, 0, 57, 65
1, 130572, Note_off_c, 0, 57, 0
1, 130572, Note_on_c, 0, 57, 65
1, 130572, Note_off_c, 0, 57, 0
1, 130572, Note_on_c, 0, 62, 65
1, 130572, Note_off_c, 0, 74, 0
1, 130572, Note_on_c, 0, 54, 65
1, 134668, Note_off_c, 0, 57, 0
1, 134668, Note_off_c, 0, 54, 0
1, 134668, Note_off_c, 0, 62, 0
1, 134668, Note_on_c, 0, 57, 65
1, 134668, Note_on_c, 0, 64, 65
1, 134668, Note_on_c, 0, 61, 65
1, 138764, Note_on_c, 0, 62, 65
1, 138764, Note_off_c, 0, 64, 0
1, 138764, Note_off_c, 0, 61, 0
1, 138764, Note_on_c, 0, 55, 65
1, 138764, Note_off_c, 0, 57, 0
1, 138764, Note_on_c, 0, 59, 65
1, 142860, Note_off_c, 0, 59, 0
1, 142860, Note_on_c, 0, 55, 65
1, 142860, Note_on_c, 0, 62, 65
1, 142860, Note_on_c, 0, 59, 65
1, 142860, Note_off_c, 0, 55, 0
1, 142860, Note_off_c, 0, 62, 0
1, 144908, Note_off_c, 0, 59, 0
1, 144908, Note_off_c, 0, 55, 0
1, 144908, Note_on_c, 0, 55, 65
1, 144908, Note_on_c, 0, 59, 65
1, 144908, Note_on_c, 0, 62, 65
1, 144908, Note_off_c, 0, 62, 0
1, 146956, Note_on_c, 0, 61, 65
1, 146956, Note_on_c, 0, 57, 65
1, 146956, Note_off_c, 0, 59, 0
1, 146956, Note_off_c, 0, 62, 0
1, 146956, Note_off_c, 0, 55, 0
1, 146956, Note_on_c, 0, 64, 65
1, 149004, Note_on_c, 0, 62, 65
1, 149004, Note_on_c, 0, 55, 65
1, 149004, Note_off_c, 0, 64, 0
1, 149004, Note_off_c, 0, 61, 0
1, 149004, Note_off_c, 0, 57, 0
1, 149004, Note_on_c, 0, 59, 65
1, 151052, Note_on_c, 0, 57, 65
1, 151052, Note_on_c, 0, 64, 65
1, 151052, Note_off_c, 0, 55, 0
1, 151052, Note_off_c, 0, 59, 0
1, 151052, Note_on_c, 0, 61, 65
1, 151052, Note_off_c, 0, 62, 0
1, 153100, Note_off_c, 0, 64, 0
1, 153100, Note_off_c, 0, 61, 0
1, 153100, Note_on_c, 0, 62, 65
1, 153100, Note_on_c, 0, 64, 65
1, 153100, Note_off_c, 0, 57, 0
1, 153100, Note_on_c, 0, 57, 65
1, 155148, Note_on_c, 0, 54, 65
1, 155148, Note_off_c, 0, 62, 0
1, 155148, Note_off_c, 0, 57, 0
1, 155148, Note_on_c, 0, 62, 65
1, 155148, Note_off_c, 0, 64, 0
1, 155148, Note_on_c, 0, 59, 65
1, 156172, Note_off_c, 0, 62, 0
1, 156172, Note_off_c, 0, 54, 0
1, 156172, Note_off_c, 0, 59, 0
1, 156684, Note_on_c, 0, 66, 65
1, 156684, Note_on_c, 0, 59, 65
1, 156684, Note_on_c, 0, 62, 65
1, 159244, Note_on_c, 0, 61, 65
1, 159244, Note_on_c, 0, 62, 65
1, 159244, Note_off_c, 0, 62, 0
1, 159244, Note_off_c, 0, 59, 0
1, 159244, Note_off_c, 0, 66, 0
1, 159244, Note_on_c, 0, 57, 65
1, 160628, Note_off_c, 0, 61, 0
1, 160780, Note_off_c, 0, 62, 0
1, 160780, Note_off_c, 0, 57, 0
1, 160780, Note_on_c, 0, 54, 65
1, 160780, Note_on_c, 0, 59, 65
1, 160780, Note_on_c, 0, 62, 65
1, 161804, Note_off_c, 0, 54, 0
1, 161804, Note_on_c, 0, 57, 65
1, 161804, Note_on_c, 0, 57, 65
1, 161804, Note_off_c, 0, 62, 0
1, 161804, Note_on_c, 0, 61, 65
1, 161804, Note_off_c, 0, 59, 0
1, 163340, Note_off_c, 0, 57, 0
1, 163340, Note_off_c, 0, 61, 0
1, 163340, Note_off_c, 0, 57, 0
1, 163340, Note_on_c, 0, 62, 65
1, 163340, Note_on_c, 0, 55, 65
1, 163340, Note_on_c, 0, 59, 65
1, 164876, Note_on_c, 0, 62, 65
1, 164876, Note_off_c, 0, 59, 0
1, 164876, Note_on_c, 0, 55, 65
1, 164876, Note_off_c, 0, 55, 0
1, 164876, Note_off_c, 0, 62, 0
1, 164876, Note_on_c, 0, 59, 65
1, 165900, Note_on_c, 0, 62, 65
1, 165900, Note_off_c, 0, 55, 0
1, 165900, Note_off_c, 0, 59, 0
1, 165900, Note_off_c, 0, 62, 0
1, 165900, Note_on_c, 0, 54, 65
1, 165900, Note_on_c, 0, 59, 65
1, 167436, Note_off_c, 0, 54, 0
1, 167436, Note_off_c, 0, 59, 0
1, 167436, Note_on_c, 0, 55, 65
1, 167436, Note_on_c, 0, 59, 65
1, 167436, Note_on_c, 0, 62, 65
1, 167436, Note_off_c, 0, 62, 0
1, 168972, Note_off_c, 0, 62, 0
1, 168972, Note_off_c, 0, 55, 0
1, 168972, Note_on_c, 0, 55, 65
1, 168972, Note_on_c, 0, 59, 65
1, 168972, Note_on_c, 0, 62, 65
1, 168972, Note_off_c, 0, 59, 0
1, 170508, Note_on_c, 0, 62, 65
1, 170508, Note_on_c, 0, 55, 65
1, 170508, Note_on_c, 0, 59, 65
1, 170508, Note_off_c, 0, 55, 0
1, 170508, Note_off_c, 0, 59, 0
1, 170508, Note_off_c, 0, 62, 0
1, 172044, Note_off_c, 0, 62, 0
1, 172044, Note_on_c, 0, 55, 65
1, 172044, Note_on_c, 0, 59, 65
1, 172044, Note_on_c, 0, 62, 65
1, 172044, Note_off_c, 0, 59, 0
1, 172044, Note_off_c, 0, 55, 0
1, 173068, Note_on_c, 0, 62, 65
1, 173068, Note_off_c, 0, 62, 0
1, 173068, Note_off_c, 0, 59, 0
1, 173068, Note_off_c, 0, 55, 0
1, 173068, Note_on_c, 0, 59, 65
1, 173068, Note_on_c, 0, 55, 65
1, 174092, Note_off_c, 0, 62, 0
1, 174092, Note_off_c, 0, 59, 0
1, 174092, Note_on_c, 0, 64, 65
1, 174092, Note_on_c, 0, 57, 65
1, 174092, Note_off_c, 0, 55, 0
1, 174092, Note_on_c, 0, 54, 65
1, 175628, Note_off_c, 0, 64, 0
1, 175628, Note_on_c, 0, 59, 65
1, 175628, Note_on_c, 0, 55, 65
1, 175628, Note_off_c, 0, 57, 0
1, 175628, Note_on_c, 0, 62, 65
1, 175628, Note_off_c, 0, 54, 0
1, 176652, Note_off_c, 0, 55, 0
1, 176652, Note_off_c, 0, 59, 0
1, 176652, Note_off_c, 0, 62, 0
1, 177164, Note_on_c, 0, 62, 65
1, 177164, Note_on_c, 0, 59, 65
1, 177164, Note_on_c, 0, 55, 65
1, 177676, Note_off_c, 0, 55, 0
1, 177676, Note_off_c, 0, 59, 0
1, 177676, Note_off_c, 0, 62, 0
1, 178188, Note_on_c, 0, 62, 65
1, 178188, Note_on_c, 0, 57, 65
1, 178188, Note_on_c, 0, 54, 65
1, 179212, Note_off_c, 0, 54, 0
1, 179212, Note_off_c, 0, 57, 0
1, 179212, Note_off_c, 0, 62, 0
1, 179212, Note_on_c, 0, 57, 65
1, 179212, Note_on_c, 0, 54, 65
1, 179212, Note_on_c, 0, 62, 65
1, 180236, Note_on_c, 0, 65, 65
1, 180236, Note_on_c, 0, 58, 65
1, 180236, Note_off_c, 0, 57, 0
1, 180236, Note_off_c, 0, 62, 0
1, 180236, Note_off_c, 0, 54, 0
1, 180236, Note_on_c, 0, 62, 65
1, 181260, Note_on_c, 0, 60, 65
1, 181260, Note_on_c, 0, 55, 65
1, 181260, Note_off_c, 0, 58, 0
1, 181260, Note_on_c, 0, 64, 65
1, 181260, Note_off_c, 0, 62, 0
1, 181260, Note_off_c, 0, 65, 0
1, 182284, Note_off_c, 0, 64, 0
1, 182284, Note_off_c, 0, 60, 0
1, 182284, Note_off_c, 0, 55, 0
1, 182284, Note_on_c, 0, 55, 65
1, 182284, Note_on_c, 0, 63, 65
1, 182284, Note_on_c, 0, 66, 65
1, 182796, Note_off_c, 0, 66, 0
1, 182796, Note_on_c, 0, 80, 65
1, 182796, Note_on_c, 0, 71, 65
1, 182796, Note_on_c, 0, 52, 65
1, 182796, Note_on_c, 0, 68, 65
1, 182796, Note_off_c, 0, 55, 0
1, 182796, Note_off_c, 0, 63, 0
1, 183820, Note_off_c, 0, 71, 0
1, 183820, Note_on_c, 0, 64, 65
1, 183820, Note_on_c, 0, 61, 65
1, 183820, Note_off_c, 0, 68, 0
1, 183820, Note_off_c, 0, 52, 0
1, 183820, Note_off_c, 0, 80, 0
1, 184844, Note_on_c, 0, 62, 65
1, 184844, Note_on_c, 0, 59, 65
1, 184844, Note_on_c, 0, 54, 65
1, 184844, Note_off_c, 0, 61, 0
1, 184844, Note_off_c, 0, 64, 0
1, 185868, Note_off_c, 0, 54, 0
1, 185868, Note_off_c, 0, 62, 0
1, 185868, Note_off_c, 0, 59, 0
1, 185868, Note_on_c, 0, 61, 65
1, 185868, Note_on_c, 0, 54, 65
1, 186380, Note_on_c, 0, 70, 65
1, 186892, Note_off_c, 0, 61, 0
1, 186892, Note_off_c, 0, 54, 0
1, 186892, Note_on_c, 0, 74, 65
1, 186892, Note_on_c, 0, 39, 65
1, 186892, Note_on_c, 0, 46, 65
1, 186901, Note_off_c, 0, 70, 0
1, 187404, Note_on_c, 0, 77, 65
1, 187413, Note_off_c, 0, 74, 0
1, 187888, Note_off_c, 0, 77, 0
1, 187916, Note_off_c, 0, 46, 0
1, 187916, Note_off_c, 0, 39, 0
1, 188428, Note_on_c, 0, 70, 65
1, 188428, Note_on_c, 0, 70, 65
1, 188428, Note_on_c, 0, 75, 65
1, 188428, Note_on_c, 0, 81, 65
1, 188428, Note_on_c, 0, 82, 65
1, 188592, Note_off_c, 0, 70, 0
1, 188940, Note_on_c, 0, 41, 65
1, 188940, Note_on_c, 0, 24, 65
1, 189452, Note_on_c, 0, 45, 65
1, 189452, Note_on_c, 0, 48, 65
1, 189452, Note_on_c, 0, 53, 65
1, 189452, Note_off_c, 0, 24, 0
1, 189452, Note_off_c, 0, 41, 0
1, 189452, Note_on_c, 0, 65, 65
1, 189964, Note_off_c, 0, 53, 0
1, 189964, Note_off_c, 0, 48, 0
1, 189964, Note_off_c, 0, 45, 0
1, 189964, Note_off_c, 0, 75, 0
1, 189964, Note_on_c, 0, 81, 65
1, 189964, Note_on_c, 0, 67, 65
1, 189964, Note_on_c, 0, 62, 65
1, 189964, Note_off_c, 0, 81, 0
1, 189973, Note_off_c, 0, 65, 0
1, 189992, Note_off_c, 0, 82, 0
1, 190080, Note_off_c, 0, 70, 0
1, 190476, Note_on_c, 0, 38, 65
1, 190732, Note_off_c, 0, 38, 0
1, 190988, Note_on_c, 0, 70, 65
1, 191008, Note_off_c, 0, 81, 0
1, 191008, Note_off_c, 0, 67, 0
1, 191008, Note_off_c, 0, 62, 0
1, 191500, Note_on_c, 0, 75, 65
1, 191509, Note_off_c, 0, 70, 0
1, 192012, Note_on_c, 0, 77, 65
1, 192021, Note_off_c, 0, 75, 0
1, 192496, Note_off_c, 0, 77, 0
1, 192524, Note_on_c, 0, 70, 65
1, 192524, Note_on_c, 0, 82, 65
1, 192524, Note_on_c, 0, 70, 65
1, 192524, Note_on_c, 0, 27, 65
1, 192524, Note_on_c, 0, 39, 65
1, 193548, Note_off_c, 0, 39, 0
1, 193548, Note_off_c, 0, 27, 0
1, 193548, Note_on_c, 0, 50, 65
1, 193548, Note_on_c, 0, 70, 65
1, 193548, Note_on_c, 0, 82, 65
1, 194060, Note_off_c, 0, 50, 0
1, 194060, Note_on_c, 0, 77, 65
1, 194060, Note_on_c, 0, 46, 65
1, 194069, Note_off_c, 0, 82, 0
1, 194069, Note_off_c, 0, 70, 0
1, 194544, Note_off_c, 0, 77, 0
1, 194572, Note_off_c, 0, 46, 0
1, 194572, Note_off_c, 0, 82, 0
1, 194572, Note_on_c, 0, 82, 65
1, 194572, Note_off_c, 0, 70, 0
1, 194572, Note_on_c, 0, 62, 65
1, 194572, Note_off_c, 0, 70, 0
1, 195084, Note_on_c, 0, 77, 65
1, 195568, Note_off_c, 0, 77, 0
1, 195596, Note_on_c, 0, 82, 65
1, 195596, Note_on_c, 0, 63, 65
1, 195596, Note_off_c, 0, 62, 0
1, 196108, Note_on_c, 0, 70, 65
1, 196620, Note_on_c, 0, 74, 65
1, 196620, Note_off_c, 0, 63, 0
1, 196620, Note_on_c, 0, 46, 65
1, 196620, Note_on_c, 0, 50, 65
1, 196620, Note_off_c, 0, 82, 0
1, 196629, Note_off_c, 0, 70, 0
1, 197132, Note_off_c, 0, 50, 0
1, 197132, Note_off_c, 0, 46, 0
1, 197132, Note_on_c, 0, 70, 65
1, 197132, Note_on_c, 0, 39, 65
1, 197141, Note_off_c, 0, 74, 0
1, 197644, Note_on_c, 0, 46, 65
1, 197644, Note_on_c, 0, 75, 65
1, 197644, Note_on_c, 0, 79, 65
1, 197644, Note_on_c, 0, 82, 65
1, 197644, Note_on_c, 0, 51, 65
1, 197644, Note_off_c, 0, 39, 0
1, 197644, Note_off_c, 0, 82, 0
1, 197644, Note_on_c, 0, 70, 65
1, 197653, Note_off_c, 0, 70, 0
1, 198156, Note_off_c, 0, 46, 0
1, 198156, Note_off_c, 0, 51, 0
1, 198156, Note_on_c, 0, 39, 65
1, 198668, Note_off_c, 0, 75, 0
1, 198668, Note_on_c, 0, 82, 65
1, 198668, Note_on_c, 0, 87, 65
1, 198668, Note_on_c, 0, 79, 65
1, 198668, Note_on_c, 0, 75, 65
1, 198688, Note_off_c, 0, 70, 0
1, 198688, Note_off_c, 0, 79, 0
1, 198688, Note_off_c, 0, 82, 0
1, 199180, Note_off_c, 0, 39, 0
1, 199180, Note_on_c, 0, 39, 65
1, 199692, Note_on_c, 0, 45, 65
1, 199692, Note_on_c, 0, 77, 65
1, 199692, Note_on_c, 0, 74, 65
1, 199692, Note_on_c, 0, 50, 65
1, 199692, Note_off_c, 0, 39, 0
1, 199692, Note_off_c, 0, 82, 0
1, 199692, Note_off_c, 0, 79, 0
1, 199712, Note_off_c, 0, 75, 0
1, 199712, Note_off_c, 0, 87, 0
1, 200204, Note_on_c, 0, 81, 65
1, 200204, Note_on_c, 0, 70, 65
1, 200204, Note_on_c, 0, 74, 65
1, 200204, Note_on_c, 0, 77, 65
1, 200716, Note_on_c, 0, 24, 65
1, 200716, Note_on_c, 0, 36, 65
1, 200716, Note_off_c, 0, 50, 0
1, 200716, Note_off_c, 0, 45, 0
1, 201228, Note_off_c, 0, 24, 0
1, 201228, Note_on_c, 0, 36, 65
1, 201228, Note_off_c, 0, 74, 0
1, 201228, Note_off_c, 0, 36, 0
1, 201256, Note_off_c, 0, 77, 0
1, 201740, Note_on_c, 0, 36, 65
1, 201740, Note_on_c, 0, 65, 65
1, 201740, Note_off_c, 0, 36, 0
1, 201740, Note_off_c, 0, 77, 0
1, 201740, Note_off_c, 0, 74, 0
1, 201768, Note_off_c, 0, 81, 0
1, 201768, Note_off_c, 0, 70, 0
1, 202252, Note_off_c, 0, 36, 0
1, 202252, Note_on_c, 0, 82, 65
1, 202252, Note_on_c, 0, 70, 65
1, 202252, Note_on_c, 0, 39, 65
1, 202252, Note_on_c, 0, 82, 65
1, 202261, Note_off_c, 0, 65, 0
1, 202764, Note_on_c, 0, 77, 65
1, 202773, Note_off_c, 0, 70, 0
1, 202773, Note_off_c, 0, 82, 0
1, 202773, Note_off_c, 0, 82, 0
1, 203248, Note_off_c, 0, 77, 0
1, 203276, Note_on_c, 0, 82, 65
1, 203276, Note_on_c, 0, 39, 65
1, 203276, Note_on_c, 0, 51, 65
1, 203276, Note_off_c, 0, 39, 0
1, 203536, Note_off_c, 0, 82, 0
1, 203788, Note_on_c, 0, 65, 65
1, 203788, Note_off_c, 0, 51, 0
1, 203788, Note_off_c, 0, 39, 0
1, 204300, Note_on_c, 0, 50, 65
1, 204300, Note_on_c, 0, 74, 65
1, 204300, Note_on_c, 0, 55, 65
1, 204309, Note_off_c, 0, 65, 0
1, 204812, Note_on_c, 0, 77, 65
1, 204821, Note_off_c, 0, 74, 0
1, 205296, Note_off_c, 0, 77, 0
1, 205324, Note_off_c, 0, 55, 0
1, 205324, Note_on_c, 0, 81, 65
1, 205324, Note_off_c, 0, 50, 0
1, 205836, Note_off_c, 0, 81, 0
1, 205836, Note_on_c, 0, 77, 65
1, 205836, Note_on_c, 0, 75, 65
1, 206860, Note_on_c, 0, 60, 65
1, 206860, Note_on_c, 0, 69, 65
1, 206880, Note_off_c, 0, 75, 0
1, 208908, Note_off_c, 0, 60, 0
1, 208908, Note_on_c, 0, 61, 65
1, 208908, Note_off_c, 0, 69, 0
1, 208908, Note_on_c, 0, 66, 65
1, 209932, Note_off_c, 0, 61, 0
1, 209932, Note_off_c, 0, 66, 0
1, 209932, Note_off_c, 0, 77, 0
1, 209932, Note_on_c, 0, 54, 65
1, 209932, Note_on_c, 0, 59, 65
1, 209932, Note_on_c, 0, 62, 65
1, 210956, Note_off_c, 0, 54, 0
1, 210956, Note_off_c, 0, 59, 0
1, 210956, Note_off_c, 0, 62, 0
1, 211468, Note_on_c, 0, 54, 65
1, 211468, Note_on_c, 0, 59, 65
1, 211468, Note_on_c, 0, 62, 65
1, 214028, Note_on_c, 0, 37, 65
1, 214028, Note_on_c, 0, 47, 65
1, 214028, Note_off_c, 0, 62, 0
1, 214028, Note_off_c, 0, 59, 0
1, 214028, Note_off_c, 0, 54, 0
1, 215052, Note_on_c, 0, 45, 65
1, 215052, Note_off_c, 0, 37, 0
1, 215052, Note_off_c, 0, 47, 0
1, 216076, Note_on_c, 0, 50, 65
1, 216076, Note_off_c, 0, 45, 0
1, 217100, Note_on_c, 0, 38, 65
1, 217100, Note_off_c, 0, 50, 0
1, 218124, Note_on_c, 0, 38, 65
1, 218124, Note_off_c, 0, 38, 0
1, 219148, Note_on_c, 0, 38, 65
1, 219148, Note_off_c, 0, 38, 0
1, 220172, Note_on_c, 0, 38, 65
1, 220172, Note_off_c, 0, 38, 0
1, 221196, Note_off_c, 0, 38, 0
1, 221196, Note_on_c, 0, 38, 65
1, 222220, Note_on_c, 0, 38, 65
1, 222220, Note_off_c, 0, 38, 0
1, 223244, Note_on_c, 0, 38, 65
1, 223244, Note_off_c, 0, 38, 0
1, 224268, Note_on_c, 0, 38, 65
1, 224268, Note_off_c, 0, 38, 0
1, 225292, Note_on_c, 0, 38, 65
1, 225292, Note_off_c, 0, 38, 0
1, 226316, Note_off_c, 0, 38, 0
1, 226316, Note_on_c, 0, 38, 65
1, 227340, Note_on_c, 0, 38, 65
1, 227340, Note_off_c, 0, 38, 0
1, 228364, Note_off_c, 0, 38, 0
1, 228364, Note_on_c, 0, 38, 65
1, 229388, Note_off_c, 0, 38, 0
1, 229388, Note_on_c, 0, 37, 65
1, 230412, Note_on_c, 0, 45, 65
1, 230412, Note_off_c, 0, 37, 0
1, 231436, Note_on_c, 0, 45, 65
1, 231436, Note_off_c, 0, 45, 0
1, 232460, Note_on_c, 0, 47, 65
1, 232460, Note_off_c, 0, 45, 0
1, 233484, Note_off_c, 0, 47, 0
1, 233484, Note_on_c, 0, 47, 65
1, 234508, Note_off_c, 0, 47, 0
1, 234508, Note_on_c, 0, 47, 65
1, 235532, Note_on_c, 0, 47, 65
1, 235532, Note_off_c, 0, 47, 0
1, 236556, Note_off_c, 0, 47, 0
1, 236556, Note_on_c, 0, 45, 65
1, 237580, Note_on_c, 0, 45, 65
1, 237580, Note_off_c, 0, 45, 0
1, 238604, Note_on_c, 0, 45, 65
1, 238604, Note_off_c, 0, 45, 0
1, 239628, Note_on_c, 0, 45, 65
1, 239628, Note_off_c, 0, 45, 0
1, 240652, Note_on_c, 0, 45, 65
1, 240652, Note_off_c, 0, 45, 0
1, 241676, Note_off_c, 0, 45, 0
1, 241676, Note_on_c, 0, 45, 65
1, 242700, Note_off_c, 0, 45, 0
1, 242700, Note_on_c, 0, 50, 65
1, 243724, Note_on_c, 0, 50, 65
1, 243724, Note_off_c, 0, 50, 0
1, 244748, Note_off_c, 0, 50, 0
1, 244748, Note_on_c, 0, 50, 65
1, 245772, Note_on_c, 0, 50, 65
1, 245772, Note_off_c, 0, 50, 0
1, 246796, Note_on_c, 0, 49, 65
1, 246796, Note_off_c, 0, 50, 0
1, 247820, Note_on_c, 0, 46, 65
1, 247820, Note_off_c, 0, 49, 0
1, 248844, Note_off_c, 0, 46, 0
1, 248844, Note_on_c, 0, 37, 65
1, 249868, Note_off_c, 0, 37, 0
1, 249868, Note_on_c, 0, 37, 65
1, 250892, Note_off_c, 0, 37, 0
1, 250892, Note_on_c, 0, 37, 65
1, 251916, Note_on_c, 0, 47, 65
1, 251916, Note_off_c, 0, 37, 0
1, 252940, Note_on_c, 0, 45, 65
1, 252940, Note_off_c, 0, 47, 0
1, 253964, Note_off_c, 0, 45, 0
1, 253964, Note_on_c, 0, 45, 65
1, 254988, Note_on_c, 0, 43, 65
1, 254988, Note_off_c, 0, 45, 0
1, 256012, Note_on_c, 0, 43, 65
1, 256012, Note_off_c, 0, 43, 0
1, 257036, Note_on_c, 0, 43, 65
1, 257036, Note_off_c, 0, 43, 0
1, 258060, Note_off_c, 0, 43, 0
1, 258060, Note_on_c, 0, 43, 65
1, 259084, Note_on_c, 0, 43, 65
1, 259084, Note_off_c, 0, 43, 0
1, 260108, Note_off_c, 0, 43, 0
1, 260108, Note_on_c, 0, 43, 65
1, 261132, Note_off_c, 0, 43, 0
1, 261132, Note_on_c, 0, 45, 65
1, 262156, Note_off_c, 0, 45, 0
1, 262156, Note_on_c, 0, 45, 65
1, 263180, Note_on_c, 0, 45, 65
1, 263180, Note_off_c, 0, 45, 0
1, 264204, Note_on_c, 0, 45, 65
1, 264204, Note_off_c, 0, 45, 0
1, 265228, Note_on_c, 0, 45, 65
1, 265228, Note_off_c, 0, 45, 0
1, 266252, Note_off_c, 0, 45, 0
1, 266252, Note_on_c, 0, 43, 65
1, 267276, Note_on_c, 0, 43, 65
1, 267276, Note_off_c, 0, 43, 0
1, 268300, Note_off_c, 0, 43, 0
1, 268300, Note_on_c, 0, 43, 65
1, 269324, Note_on_c, 0, 43, 65
1, 269324, Note_off_c, 0, 43, 0
1, 270348, Note_off_c, 0, 43, 0
1, 270348, Note_on_c, 0, 43, 65
1, 271372, Note_on_c, 0, 43, 65
1, 271372, Note_off_c, 0, 43, 0
1, 272396, Note_off_c, 0, 43, 0
1, 272396, Note_on_c, 0, 43, 65
1, 273420, Note_off_c, 0, 43, 0
1, 273420, Note_on_c, 0, 50, 65
1, 274444, Note_off_c, 0, 50, 0
1, 274444, Note_on_c, 0, 50, 65
1, 275468, Note_on_c, 0, 50, 65
1, 275468, Note_off_c, 0, 50, 0
1, 276492, Note_off_c, 0, 50, 0
1, 276492, Note_on_c, 0, 50, 65
1, 277516, Note_off_c, 0, 50, 0
1, 277516, Note_on_c, 0, 49, 65
1, 278540, Note_off_c, 0, 49, 0
1, 278540, Note_on_c, 0, 48, 65
1, 279564, Note_on_c, 0, 48, 65
1, 279564, Note_off_c, 0, 48, 0
1, 280588, Note_off_c, 0, 48, 0
1, 280588, Note_on_c, 0, 48, 65
1, 281612, Note_off_c, 0, 48, 0
1, 281612, Note_on_c, 0, 48, 65
1, 282636, Note_off_c, 0, 48, 0
1, 282636, Note_on_c, 0, 48, 65
1, 283660, Note_off_c, 0, 48, 0
1, 283660, Note_on_c, 0, 48, 65
1, 284684, Note_off_c, 0, 48, 0
1, 284684, Note_on_c, 0, 38, 65
1, 285708, Note_off_c, 0, 38, 0
1, 285708, Note_on_c, 0, 38, 65
1, 286732, Note_off_c, 0, 38, 0
1, 286732, Note_on_c, 0, 38, 65
1, 287756, Note_on_c, 0, 38, 65
1, 287756, Note_off_c, 0, 38, 0
1, 288780, Note_off_c, 0, 38, 0
1, 288780, Note_on_c, 0, 37, 65
1, 289804, Note_off_c, 0, 37, 0
1, 289804, Note_on_c, 0, 47, 65
1, 290828, Note_off_c, 0, 47, 0
1, 290828, Note_on_c, 0, 47, 65
1, 291852, Note_off_c, 0, 47, 0
1, 291852, Note_on_c, 0, 47, 65
1, 292876, Note_on_c, 0, 47, 65
1, 292876, Note_off_c, 0, 47, 0
1, 293900, Note_off_c, 0, 47, 0
1, 293901, End_track
0, 0, End_of_file
