0, 0, Header, 1, 1, 1024
1, 0, Start_track
1, 0, Title_t, "1"
1, 0, Note_on_c, 0, 69, 65
1, 512, Note_on_c, 0, 76, 65
1, 512, Note_on_c, 0, 81, 65
1, 512, Note_on_c, 0, 46, 65
1, 512, Note_on_c, 0, 50, 65
1, 512, Note_off_c, 0, 69, 0
1, 1024, Note_off_c, 0, 76, 0
1, 1024, Note_off_c, 0, 81, 0
1, 1024, Note_on_c, 0, 60, 65
1, 1024, Note_on_c, 0, 46, 65
1, 1024, Note_on_c, 0, 77, 65
1, 1536, Note_off_c, 0, 46, 0
1, 1536, Note_off_c, 0, 46, 0
1, 1536, Note_on_c, 0, 75, 65
1, 1536, Note_on_c, 0, 51, 65
1, 1545, Note_off_c, 0, 60, 0
1, 1545, Note_off_c, 0, 77, 0
1, 2048, Note_on_c, 0, 72, 65
1, 2048, Note_off_c, 0, 50, 0
1, 2057, Note_off_c, 0, 75, 0
1, 2560, Note_off_c, 0, 51, 0
1, 2560, Note_on_c, 0, 75, 65
1, 2560, Note_on_c, 0, 46, 65
1, 2569, Note_off_c, 0, 72, 0
1, 3072, Note_on_c, 0, 77, 65
1, 3081, Note_off_c, 0, 75, 0
1, 3556, Note_off_c, 0, 77, 0
1, 3584, Note_off_c, 0, 46, 0
1, 3584, Note_on_c, 0, 82, 65
1, 3584, Note_on_c, 0, 58, 65
1, 4096, Note_on_c, 0, 70, 65
1, 4608, Note_on_c, 0, 74, 65
1, 4608, Note_on_c, 0, 50, 65
1, 4608, Note_off_c, 0, 58, 0
1, 4617, Note_off_c, 0, 70, 0
1, 5120, Note_off_c, 0, 50, 0
1, 5120, Note_on_c, 0, 51, 65
1, 5120, Note_on_c, 0, 77, 65
1, 5129, Note_off_c, 0, 74, 0
1, 5376, Note_off_c, 0, 82, 0
1, 5604, Note_off_c, 0, 77, 0
1, 5632, Note_off_c, 0, 51, 0
1, 5632, Note_on_c, 0, 48, 65
1, 5632, Note_on_c, 0, 82, 65
1, 5888, Note_on_c, 0, 53, 65
1, 5892, Note_off_c, 0, 48, 0
1, 6116, Note_off_c, 0, 82, 0
1, 6144, Note_on_c, 0, 46, 65
1, 6148, Note_off_c, 0, 53, 0
1, 6400, Note_on_c, 0, 45, 65
1, 6404, Note_off_c, 0, 46, 0
1, 6656, Note_on_c, 0, 55, 65
1, 6660, Note_off_c, 0, 45, 0
1, 6912, Note_on_c, 0, 65, 65
1, 6916, Note_off_c, 0, 55, 0
1, 7168, Note_on_c, 0, 82, 65
1, 7168, Note_on_c, 0, 50, 65
1, 7168, Note_on_c, 0, 46, 65
1, 7168, Note_on_c, 0, 77, 65
1, 7168, Note_on_c, 0, 86, 65
1, 7172, Note_off_c, 0, 65, 0
1, 7652, Note_off_c, 0, 82, 0
1, 7652, Note_off_c, 0, 77, 0
1, 7652, Note_off_c, 0, 86, 0
1, 7680, Note_on_c, 0, 81, 65
1, 7680, Note_on_c, 0, 74, 65
1, 7680, Note_on_c, 0, 77, 65
1, 7680, Note_on_c, 0, 70, 65
1, 8192, Note_off_c, 0, 46, 0
1, 8192, Note_off_c, 0, 50, 0
1, 8192, Note_on_c, 0, 38, 65
1, 8192, Note_on_c, 0, 26, 65
1, 8704, Note_off_c, 0, 26, 0
1, 8704, Note_on_c, 0, 38, 65
1, 8704, Note_off_c, 0, 38, 0
1, 9216, Note_on_c, 0, 74, 65
1, 9216, Note_on_c, 0, 79, 65
1, 9216, Note_on_c, 0, 26, 65
1, 9216, Note_on_c, 0, 70, 65
1, 9216, Note_on_c, 0, 38, 65
1, 9216, Note_off_c, 0, 77, 0
1, 9216, Note_off_c, 0, 38, 0
1, 9216, Note_off_c, 0, 74, 0
1, 9244, Note_off_c, 0, 70, 0
1, 9244, Note_off_c, 0, 81, 0
1, 10240, Note_on_c, 0, 67, 65
1, 10240, Note_on_c, 0, 26, 65
1, 10240, Note_off_c, 0, 38, 0
1, 10240, Note_off_c, 0, 26, 0
1, 10240, Note_on_c, 0, 62, 65
1, 10240, Note_on_c, 0, 70, 65
1, 10240, Note_on_c, 0, 38, 65
1, 10260, Note_off_c, 0, 70, 0
1, 10260, Note_off_c, 0, 79, 0
1, 10260, Note_off_c, 0, 74, 0
1, 10752, Note_off_c, 0, 26, 0
1, 11264, Note_on_c, 0, 81, 65
1, 11264, Note_on_c, 0, 79, 65
1, 11264, Note_off_c, 0, 38, 0
1, 11264, Note_on_c, 0, 72, 65
1, 11284, Note_off_c, 0, 70, 0
1, 11284, Note_off_c, 0, 67, 0
1, 11284, Note_off_c, 0, 62, 0
1, 11776, Note_on_c, 0, 41, 65
1, 11945, Note_on_c, 0, 65, 65
1, 12288, Note_on_c, 0, 70, 65
1, 12288, Note_on_c, 0, 74, 65
1, 12288, Note_on_c, 0, 26, 65
1, 12288, Note_on_c, 0, 82, 65
1, 12288, Note_off_c, 0, 41, 0
1, 12288, Note_on_c, 0, 79, 65
1, 12288, Note_on_c, 0, 74, 65
1, 12288, Note_on_c, 0, 38, 65
1, 12292, Note_off_c, 0, 65, 0
1, 12308, Note_off_c, 0, 81, 0
1, 12308, Note_off_c, 0, 79, 0
1, 12308, Note_off_c, 0, 72, 0
1, 13312, Note_off_c, 0, 38, 0
1, 13312, Note_on_c, 0, 51, 65
1, 13312, Note_off_c, 0, 26, 0
1, 13312, Note_on_c, 0, 74, 65
1, 13745, Note_off_c, 0, 70, 0
1, 13824, Note_on_c, 0, 39, 65
1, 13824, Note_on_c, 0, 82, 65
1, 13824, Note_off_c, 0, 74, 0
1, 13833, Note_off_c, 0, 74, 0
1, 13852, Note_off_c, 0, 82, 0
1, 13852, Note_off_c, 0, 79, 0
1, 13852, Note_off_c, 0, 74, 0
1, 14336, Note_off_c, 0, 51, 0
1, 14336, Note_on_c, 0, 77, 65
1, 14384, Note_on_c, 0, 70, 65
1, 14384, Note_off_c, 0, 77, 0
1, 14544, Note_on_c, 0, 75, 65
1, 14848, Note_off_c, 0, 82, 0
1, 14848, Note_off_c, 0, 39, 0
1, 15356, Note_off_c, 0, 75, 0
1, 15369, Note_off_c, 0, 70, 0
1, 15568, Note_on_c, 0, 86, 65
1, 16080, Note_on_c, 0, 82, 65
1, 16477, Note_off_c, 0, 82, 0
1, 16684, Note_on_c, 0, 84, 65
1, 16684, Note_on_c, 0, 39, 65
1, 17196, Note_on_c, 0, 82, 65
1, 17708, Note_off_c, 0, 39, 0
1, 17708, Note_on_c, 0, 75, 65
1, 17708, Note_on_c, 0, 55, 65
1, 17708, Note_on_c, 0, 55, 65
1, 17717, Note_off_c, 0, 82, 0
1, 18128, Note_off_c, 0, 86, 0
1, 18220, Note_on_c, 0, 82, 65
1, 18229, Note_off_c, 0, 75, 0
1, 18476, Note_on_c, 0, 82, 65
1, 18480, Note_off_c, 0, 82, 0
1, 18604, Note_off_c, 0, 84, 0
1, 18732, Note_off_c, 0, 55, 0
1, 18732, Note_off_c, 0, 55, 0
1, 18732, Note_on_c, 0, 82, 65
1, 18736, Note_off_c, 0, 82, 0
1, 18988, Note_on_c, 0, 74, 65
1, 18992, Note_off_c, 0, 82, 0
1, 19449, Note_off_c, 0, 74, 0
1, 19500, Note_on_c, 0, 65, 65
1, 19961, Note_off_c, 0, 65, 0
1, 20012, Note_on_c, 0, 60, 65
1, 20473, Note_off_c, 0, 60, 0
1, 20524, Note_on_c, 0, 67, 65
1, 20985, Note_off_c, 0, 67, 0
1, 21036, Note_on_c, 0, 60, 65
1, 21497, Note_off_c, 0, 60, 0
1, 21548, Note_on_c, 0, 67, 65
1, 22009, Note_off_c, 0, 67, 0
1, 22060, Note_on_c, 0, 60, 65
1, 22521, Note_off_c, 0, 60, 0
1, 22572, Note_on_c, 0, 67, 65
1, 23033, Note_off_c, 0, 67, 0
1, 23084, Note_on_c, 0, 60, 65
1, 23545, Note_off_c, 0, 60, 0
1, 23596, Note_on_c, 0, 67, 65
1, 24057, Note_off_c, 0, 67, 0
1, 24108, Note_on_c, 0, 67, 65
1, 24569, Note_off_c, 0, 67, 0
1, 24620, Note_on_c, 0, 79, 65
1, 25081, Note_off_c, 0, 79, 0
1, 25132, Note_on_c, 0, 84, 65
1, 25132, Note_on_c, 0, 53, 65
1, 25593, Note_off_c, 0, 53, 0
1, 25593, Note_off_c, 0, 84, 0
1, 25644, Note_on_c, 0, 50, 65
1, 25644, Note_on_c, 0, 84, 65
1, 26105, Note_off_c, 0, 84, 0
1, 26105, Note_off_c, 0, 50, 0
1, 26156, Note_on_c, 0, 55, 65
1, 26156, Note_on_c, 0, 79, 65
1, 26617, Note_off_c, 0, 79, 0
1, 26617, Note_off_c, 0, 55, 0
1, 26668, Note_on_c, 0, 77, 65
1, 26668, Note_on_c, 0, 60, 65
1, 27129, Note_off_c, 0, 77, 0
1, 27129, Note_off_c, 0, 60, 0
1, 27180, Note_on_c, 0, 55, 65
1, 27180, Note_on_c, 0, 81, 65
1, 27641, Note_off_c, 0, 81, 0
1, 27641, Note_off_c, 0, 55, 0
1, 27692, Note_on_c, 0, 50, 65
1, 27692, Note_on_c, 0, 79, 65
1, 28153, Note_off_c, 0, 79, 0
1, 28153, Note_off_c, 0, 50, 0
1, 28204, Note_on_c, 0, 81, 65
1, 28204, Note_on_c, 0, 55, 65
1, 28434, Note_off_c, 0, 81, 0
1, 28460, Note_on_c, 0, 77, 65
1, 28665, Note_off_c, 0, 55, 0
1, 28690, Note_off_c, 0, 77, 0
1, 28716, Note_on_c, 0, 46, 65
1, 29177, Note_off_c, 0, 46, 0
1, 29228, Note_on_c, 0, 79, 65
1, 29228, Note_on_c, 0, 53, 65
1, 29689, Note_off_c, 0, 53, 0
1, 29689, Note_off_c, 0, 79, 0
1, 29740, Note_on_c, 0, 79, 65
1, 29740, Note_on_c, 0, 55, 65
1, 30201, Note_off_c, 0, 55, 0
1, 30252, Note_on_c, 0, 79, 65
1, 30252, Note_on_c, 0, 46, 65
1, 30713, Note_off_c, 0, 46, 0
1, 30713, Note_off_c, 0, 79, 0
1, 30713, Note_off_c, 0, 79, 0
1, 30764, Note_on_c, 0, 77, 65
1, 30764, Note_on_c, 0, 57, 65
1, 31225, Note_off_c, 0, 77, 0
1, 31225, Note_off_c, 0, 57, 0
1, 31276, Note_on_c, 0, 84, 65
1, 31276, Note_on_c, 0, 53, 65
1, 31737, Note_off_c, 0, 84, 0
1, 31737, Note_off_c, 0, 53, 0
1, 31788, Note_on_c, 0, 57, 65
1, 32249, Note_off_c, 0, 57, 0
1, 32300, Note_on_c, 0, 77, 65
1, 32300, Note_on_c, 0, 57, 65
1, 32761, Note_off_c, 0, 77, 0
1, 32761, Note_off_c, 0, 57, 0
1, 32812, Note_on_c, 0, 84, 65
1, 32812, Note_on_c, 0, 53, 65
1, 33273, Note_off_c, 0, 84, 0
1, 33273, Note_off_c, 0, 53, 0
1, 33324, Note_on_c, 0, 48, 65
1, 33785, Note_off_c, 0, 48, 0
1, 33836, Note_on_c, 0, 48, 65
1, 33836, Note_on_c, 0, 77, 65
1, 34297, Note_off_c, 0, 48, 0
1, 34297, Note_off_c, 0, 77, 0
1, 34348, Note_on_c, 0, 55, 65
1, 34809, Note_off_c, 0, 55, 0
1, 34860, Note_on_c, 0, 45, 65
1, 34860, Note_on_c, 0, 81, 65
1, 35321, Note_off_c, 0, 45, 0
1, 35321, Note_off_c, 0, 81, 0
1, 35372, Note_on_c, 0, 79, 65
1, 35372, Note_on_c, 0, 50, 65
1, 35833, Note_off_c, 0, 50, 0
1, 35833, Note_off_c, 0, 79, 0
1, 35884, Note_on_c, 0, 50, 65
1, 35884, Note_on_c, 0, 79, 65
1, 36345, Note_off_c, 0, 79, 0
1, 36345, Note_off_c, 0, 50, 0
1, 36396, Note_on_c, 0, 57, 65
1, 36396, Note_on_c, 0, 77, 65
1, 36857, Note_off_c, 0, 77, 0
1, 36857, Note_off_c, 0, 57, 0
1, 36908, Note_on_c, 0, 55, 65
1, 37369, Note_off_c, 0, 55, 0
1, 37420, Note_on_c, 0, 60, 65
1, 37881, Note_off_c, 0, 60, 0
1, 37932, Note_on_c, 0, 55, 65
1, 38393, Note_off_c, 0, 55, 0
1, 38444, Note_on_c, 0, 60, 65
1, 38905, Note_off_c, 0, 60, 0
1, 38956, Note_on_c, 0, 69, 65
1, 39417, Note_off_c, 0, 69, 0
1, 39468, Note_on_c, 0, 67, 65
1, 39929, Note_off_c, 0, 67, 0
1, 39980, Note_on_c, 0, 60, 65
1, 40441, Note_off_c, 0, 60, 0
1, 40492, Note_on_c, 0, 60, 65
1, 40953, Note_off_c, 0, 60, 0
1, 41004, Note_on_c, 0, 69, 65
1, 41465, Note_off_c, 0, 69, 0
1, 41516, Note_on_c, 0, 58, 65
1, 41977, Note_off_c, 0, 58, 0
1, 42028, Note_on_c, 0, 67, 65
1, 42028, Note_on_c, 0, 62, 65
1, 42028, Note_on_c, 0, 58, 65
1, 42028, Note_on_c, 0, 55, 65
1, 42950, Note_off_c, 0, 67, 0
1, 42950, Note_off_c, 0, 62, 0
1, 42950, Note_off_c, 0, 58, 0
1, 42950, Note_off_c, 0, 55, 0
1, 43052, Note_on_c, 0, 43, 65
1, 43513, Note_off_c, 0, 43, 0
1, 43564, Note_on_c, 0, 36, 65
1, 44486, Note_off_c, 0, 36, 0
1, 44588, Note_on_c, 0, 45, 65
1, 45049, Note_off_c, 0, 45, 0
1, 45100, Note_on_c, 0, 77, 65
1, 45100, Note_on_c, 0, 52, 65
1, 45561, Note_off_c, 0, 52, 0
1, 45561, Note_off_c, 0, 77, 0
1, 45612, Note_on_c, 0, 79, 65
1, 45612, Note_on_c, 0, 53, 65
1, 46073, Note_off_c, 0, 79, 0
1, 46073, Note_off_c, 0, 53, 0
1, 46124, Note_on_c, 0, 46, 65
1, 46124, Note_on_c, 0, 77, 65
1, 46585, Note_off_c, 0, 46, 0
1, 46585, Note_off_c, 0, 77, 0
1, 46636, Note_on_c, 0, 91, 65
1, 46636, Note_on_c, 0, 58, 65
1, 46892, Note_on_c, 0, 58, 65
1, 46896, Note_off_c, 0, 58, 0
1, 47097, Note_off_c, 0, 91, 0
1, 47148, Note_on_c, 0, 53, 65
1, 47152, Note_off_c, 0, 58, 0
1, 47404, Note_on_c, 0, 46, 65
1, 47408, Note_off_c, 0, 53, 0
1, 47660, Note_on_c, 0, 51, 65
1, 47664, Note_off_c, 0, 46, 0
1, 47916, Note_on_c, 0, 55, 65
1, 47920, Note_off_c, 0, 51, 0
1, 48172, Note_on_c, 0, 74, 65
1, 48172, Note_on_c, 0, 58, 65
1, 48176, Note_off_c, 0, 55, 0
1, 48684, Note_on_c, 0, 60, 65
1, 48693, Note_off_c, 0, 74, 0
1, 49196, Note_on_c, 0, 53, 65
1, 49196, Note_on_c, 0, 72, 65
1, 49205, Note_off_c, 0, 60, 0
1, 49452, Note_on_c, 0, 38, 65
1, 49456, Note_off_c, 0, 53, 0
1, 49708, Note_off_c, 0, 38, 0
1, 49708, Note_on_c, 0, 51, 65
1, 49708, Note_on_c, 0, 45, 65
1, 49717, Note_off_c, 0, 72, 0
1, 49964, Note_off_c, 0, 45, 0
1, 50220, Note_off_c, 0, 58, 0
1, 50732, Note_off_c, 0, 51, 0
1, 50732, Note_on_c, 0, 36, 65
1, 50732, Note_on_c, 0, 24, 65
1, 50732, Note_on_c, 0, 82, 65
1, 50732, Note_on_c, 0, 91, 65
1, 51756, Note_off_c, 0, 36, 0
1, 51756, Note_off_c, 0, 24, 0
1, 51756, Note_on_c, 0, 39, 65
1, 51756, Note_on_c, 0, 82, 65
1, 51756, Note_on_c, 0, 79, 65
1, 51756, Note_on_c, 0, 72, 65
1, 51756, Note_on_c, 0, 77, 65
1, 51776, Note_off_c, 0, 82, 0
1, 51776, Note_off_c, 0, 91, 0
1, 52268, Note_on_c, 0, 77, 65
1, 52752, Note_off_c, 0, 77, 0
1, 52780, Note_off_c, 0, 77, 0
1, 52780, Note_on_c, 0, 82, 65
1, 52780, Note_on_c, 0, 78, 65
1, 52780, Note_on_c, 0, 56, 65
1, 52780, Note_off_c, 0, 39, 0
1, 52800, Note_off_c, 0, 72, 0
1, 52800, Note_off_c, 0, 82, 0
1, 52800, Note_off_c, 0, 79, 0
1, 53804, Note_on_c, 0, 59, 65
1, 53804, Note_on_c, 0, 55, 65
1, 53804, Note_on_c, 0, 62, 65
1, 53804, Note_off_c, 0, 78, 0
1, 53804, Note_off_c, 0, 56, 0
1, 53828, Note_off_c, 0, 82, 0
1, 54828, Note_on_c, 0, 62, 65
1, 54828, Note_on_c, 0, 57, 65
1, 54828, Note_off_c, 0, 59, 0
1, 54828, Note_off_c, 0, 62, 0
1, 54828, Note_off_c, 0, 55, 0
1, 54828, Note_on_c, 0, 54, 65
1, 55852, Note_off_c, 0, 57, 0
1, 55852, Note_off_c, 0, 54, 0
1, 55852, Note_off_c, 0, 62, 0
1, 55852, Note_on_c, 0, 67, 65
1, 55852, Note_on_c, 0, 59, 65
1, 55852, Note_on_c, 0, 62, 65
1, 56876, Note_on_c, 0, 57, 65
1, 56876, Note_on_c, 0, 80, 65
1, 56876, Note_on_c, 0, 71, 65
1, 56876, Note_off_c, 0, 67, 0
1, 56876, Note_off_c, 0, 59, 0
1, 56876, Note_off_c, 0, 62, 0
1, 57388, Note_on_c, 0, 64, 65
1, 57644, Note_off_c, 0, 64, 0
1, 57644, Note_on_c, 0, 73, 65
1, 57900, Note_off_c, 0, 80, 0
1, 57900, Note_off_c, 0, 71, 0
1, 57900, Note_off_c, 0, 57, 0
1, 58156, Note_off_c, 0, 73, 0
1, 58156, Note_on_c, 0, 76, 65
1, 58412, Note_on_c, 0, 73, 65
1, 58412, Note_off_c, 0, 76, 0
1, 58924, Note_on_c, 0, 80, 65
1, 58924, Note_off_c, 0, 73, 0
1, 58924, Note_on_c, 0, 76, 65
1, 58924, Note_on_c, 0, 52, 65
1, 58924, Note_on_c, 0, 64, 65
1, 58924, Note_on_c, 0, 76, 65
1, 59436, Note_on_c, 0, 62, 65
1, 59436, Note_off_c, 0, 80, 0
1, 59436, Note_on_c, 0, 63, 65
1, 59436, Note_off_c, 0, 52, 0
1, 59436, Note_off_c, 0, 64, 0
1, 59436, Note_off_c, 0, 76, 0
1, 59436, Note_off_c, 0, 76, 0
1, 59436, Note_on_c, 0, 57, 65
1, 59948, Note_off_c, 0, 62, 0
1, 59948, Note_off_c, 0, 57, 0
1, 59948, Note_off_c, 0, 63, 0
1, 60972, Note_on_c, 0, 46, 65
1, 60972, Note_on_c, 0, 75, 65
1, 60972, Note_on_c, 0, 67, 65
1, 60972, Note_on_c, 0, 38, 65
1, 61484, Note_off_c, 0, 67, 0
1, 61484, Note_off_c, 0, 75, 0
1, 61996, Note_on_c, 0, 26, 65
1, 61996, Note_on_c, 0, 78, 65
1, 61996, Note_on_c, 0, 79, 65
1, 61996, Note_off_c, 0, 46, 0
1, 61996, Note_off_c, 0, 38, 0
1, 61996, Note_on_c, 0, 74, 65
1, 61996, Note_on_c, 0, 39, 65
1, 61996, Note_on_c, 0, 72, 65
1, 63020, Note_on_c, 0, 70, 65
1, 63020, Note_off_c, 0, 78, 0
1, 63020, Note_off_c, 0, 79, 0
1, 63020, Note_off_c, 0, 26, 0
1, 63020, Note_off_c, 0, 39, 0
1, 63020, Note_on_c, 0, 41, 65
1, 63020, Note_on_c, 0, 29, 65
1, 63040, Note_off_c, 0, 72, 0
1, 63040, Note_off_c, 0, 74, 0
1, 63541, Note_off_c, 0, 70, 0
1, 64044, Note_on_c, 0, 53, 65
1, 64044, Note_on_c, 0, 48, 65
1, 64044, Note_on_c, 0, 72, 65
1, 64044, Note_off_c, 0, 29, 0
1, 64044, Note_off_c, 0, 41, 0
1, 64300, Note_off_c, 0, 53, 0
1, 64300, Note_off_c, 0, 48, 0
1, 64556, Note_on_c, 0, 53, 65
1, 64556, Note_on_c, 0, 50, 65
1, 64556, Note_on_c, 0, 46, 65
1, 64556, Note_on_c, 0, 77, 65
1, 64565, Note_off_c, 0, 72, 0
1, 65068, Note_off_c, 0, 77, 0
1, 65580, Note_on_c, 0, 74, 65
1, 65580, Note_on_c, 0, 72, 65
1, 65580, Note_off_c, 0, 46, 0
1, 65580, Note_off_c, 0, 50, 0
1, 65580, Note_off_c, 0, 53, 0
1, 65580, Note_on_c, 0, 87, 65
1, 66092, Note_on_c, 0, 75, 65
1, 66092, Note_on_c, 0, 79, 65
1, 66092, Note_on_c, 0, 82, 65
1, 66092, Note_on_c, 0, 39, 65
1, 66101, Note_off_c, 0, 72, 0
1, 66101, Note_off_c, 0, 74, 0
1, 66604, Note_on_c, 0, 63, 65
1, 67116, Note_on_c, 0, 74, 65
1, 67116, Note_on_c, 0, 51, 65
1, 67116, Note_on_c, 0, 55, 65
1, 67125, Note_off_c, 0, 63, 0
1, 67136, Note_off_c, 0, 79, 0
1, 67136, Note_off_c, 0, 75, 0
1, 67136, Note_off_c, 0, 82, 0
1, 67628, Note_off_c, 0, 51, 0
1, 67628, Note_off_c, 0, 55, 0
1, 67628, Note_off_c, 0, 87, 0
1, 67628, Note_on_c, 0, 45, 65
1, 67637, Note_off_c, 0, 74, 0
1, 68140, Note_on_c, 0, 70, 65
1, 68140, Note_on_c, 0, 39, 65
1, 68140, Note_off_c, 0, 39, 0
1, 68149, Note_off_c, 0, 45, 0
1, 68652, Note_on_c, 0, 46, 65
1, 68652, Note_on_c, 0, 79, 65
1, 68652, Note_on_c, 0, 51, 65
1, 68652, Note_off_c, 0, 39, 0
1, 68661, Note_off_c, 0, 70, 0
1, 69164, Note_off_c, 0, 51, 0
1, 69164, Note_on_c, 0, 39, 65
1, 69164, Note_off_c, 0, 46, 0
1, 69173, Note_off_c, 0, 79, 0
1, 69676, Note_on_c, 0, 82, 65
1, 69676, Note_off_c, 0, 39, 0
1, 70188, Note_on_c, 0, 70, 65
1, 70188, Note_on_c, 0, 72, 65
1, 70188, Note_on_c, 0, 74, 65
1, 70197, Note_off_c, 0, 82, 0
1, 71160, Note_off_c, 0, 72, 0
1, 71160, Note_off_c, 0, 70, 0
1, 71160, Note_off_c, 0, 74, 0
1, 71212, Note_on_c, 0, 70, 65
1, 71673, Note_off_c, 0, 70, 0
1, 71724, Note_on_c, 0, 79, 65
1, 72185, Note_off_c, 0, 79, 0
1, 72236, Note_on_c, 0, 81, 65
1, 72697, Note_off_c, 0, 81, 0
1, 72748, Note_on_c, 0, 81, 65
1, 73209, Note_off_c, 0, 81, 0
1, 73260, Note_on_c, 0, 79, 65
1, 74233, Note_off_c, 0, 79, 0
1, 74284, Note_on_c, 0, 58, 65
1, 74284, Note_on_c, 0, 69, 65
1, 74284, Note_on_c, 0, 67, 65
1, 74284, Note_on_c, 0, 74, 65
1, 74284, Note_on_c, 0, 79, 65
1, 75206, Note_off_c, 0, 74, 0
1, 75206, Note_off_c, 0, 67, 0
1, 75206, Note_off_c, 0, 58, 0
1, 75256, Note_off_c, 0, 69, 0
1, 75256, Note_off_c, 0, 79, 0
1, 75308, Note_on_c, 0, 64, 65
1, 75308, Note_on_c, 0, 67, 65
1, 76230, Note_off_c, 0, 67, 0
1, 76230, Note_off_c, 0, 64, 0
1, 76332, Note_on_c, 0, 57, 65
1, 76793, Note_off_c, 0, 57, 0
1, 76844, Note_on_c, 0, 52, 65
1, 77305, Note_off_c, 0, 52, 0
1, 77356, Note_on_c, 0, 57, 65
1, 77817, Note_off_c, 0, 57, 0
1, 77868, Note_on_c, 0, 52, 65
1, 78329, Note_off_c, 0, 52, 0
1, 78380, Note_on_c, 0, 45, 65
1, 78841, Note_off_c, 0, 45, 0
1, 78892, Note_on_c, 0, 45, 65
1, 79353, Note_off_c, 0, 45, 0
1, 79404, Note_on_c, 0, 52, 65
1, 79865, Note_off_c, 0, 52, 0
1, 79916, Note_on_c, 0, 53, 65
1, 79916, Note_on_c, 0, 79, 65
1, 80172, Note_on_c, 0, 41, 65
1, 80172, Note_off_c, 0, 53, 0
1, 80176, Note_off_c, 0, 79, 0
1, 80428, Note_on_c, 0, 82, 65
1, 80428, Note_on_c, 0, 79, 65
1, 80428, Note_on_c, 0, 88, 65
1, 80428, Note_on_c, 0, 28, 65
1, 80428, Note_on_c, 0, 40, 65
1, 80428, Note_off_c, 0, 41, 0
1, 81472, Note_off_c, 0, 79, 0
1, 81477, Note_off_c, 0, 40, 0
1, 81477, Note_off_c, 0, 28, 0
1, 81477, Note_off_c, 0, 88, 0
1, 81478, Note_on_c, 0, 52, 65
1, 81478, Note_on_c, 0, 64, 65
1, 81478, Note_on_c, 0, 80, 65
1, 81983, Note_on_c, 0, 52, 65
1, 82013, Note_off_c, 0, 52, 0
1, 82363, Note_off_c, 0, 82, 0
1, 82492, Note_off_c, 0, 80, 0
1, 82492, Note_off_c, 0, 64, 0
1, 82494, Note_on_c, 0, 76, 65
1, 82494, Note_on_c, 0, 85, 65
1, 82494, Note_on_c, 0, 73, 65
1, 82494, Note_on_c, 0, 28, 65
1, 82520, Note_off_c, 0, 52, 0
1, 83036, Note_on_c, 0, 40, 65
1, 83066, Note_off_c, 0, 28, 0
1, 83544, Note_on_c, 0, 28, 65
1, 83574, Note_off_c, 0, 40, 0
1, 84048, Note_off_c, 0, 73, 0
1, 84048, Note_off_c, 0, 85, 0
1, 84048, Note_off_c, 0, 76, 0
1, 84049, Note_on_c, 0, 40, 65
1, 84079, Note_off_c, 0, 28, 0
1, 84559, Note_on_c, 0, 32, 65
1, 84589, Note_off_c, 0, 40, 0
1, 85064, Note_on_c, 0, 44, 65
1, 85094, Note_off_c, 0, 32, 0
1, 85575, Note_on_c, 0, 32, 65
1, 85575, Note_on_c, 0, 83, 65
1, 85575, Note_on_c, 0, 75, 65
1, 85575, Note_on_c, 0, 71, 65
1, 85601, Note_off_c, 0, 44, 0
1, 86117, Note_on_c, 0, 44, 65
1, 86147, Note_off_c, 0, 32, 0
1, 86624, Note_off_c, 0, 75, 0
1, 86624, Note_off_c, 0, 71, 0
1, 86624, Note_off_c, 0, 83, 0
1, 86625, Note_on_c, 0, 66, 65
1, 86655, Note_off_c, 0, 44, 0
1, 87130, Note_on_c, 0, 71, 65
1, 87130, Note_on_c, 0, 71, 65
1, 87130, Note_on_c, 0, 82, 65
1, 87130, Note_on_c, 0, 85, 65
1, 87130, Note_on_c, 0, 32, 65
1, 87160, Note_off_c, 0, 66, 0
1, 87635, Note_on_c, 0, 28, 65
1, 87665, Note_off_c, 0, 32, 0
1, 88141, Note_off_c, 0, 82, 0
1, 88141, Note_off_c, 0, 71, 0
1, 88141, Note_off_c, 0, 85, 0
1, 88141, Note_off_c, 0, 71, 0
1, 88146, Note_on_c, 0, 78, 65
1, 88146, Note_on_c, 0, 30, 65
1, 88146, Note_on_c, 0, 87, 65
1, 88146, Note_on_c, 0, 75, 65
1, 88172, Note_off_c, 0, 28, 0
1, 88688, Note_on_c, 0, 42, 65
1, 88718, Note_off_c, 0, 30, 0
1, 89195, Note_off_c, 0, 75, 0
1, 89195, Note_off_c, 0, 78, 0
1, 89195, Note_off_c, 0, 87, 0
1, 89196, Note_on_c, 0, 32, 65
1, 89196, Note_on_c, 0, 76, 65
1, 89196, Note_on_c, 0, 88, 65
1, 89226, Note_off_c, 0, 42, 0
1, 89700, Note_off_c, 0, 88, 0
1, 89700, Note_off_c, 0, 76, 0
1, 89701, Note_on_c, 0, 71, 65
1, 89701, Note_on_c, 0, 83, 65
1, 89701, Note_on_c, 0, 42, 65
1, 89731, Note_off_c, 0, 32, 0
1, 90177, Note_off_c, 0, 71, 0
1, 90207, Note_off_c, 0, 83, 0
1, 90212, Note_on_c, 0, 47, 65
1, 90212, Note_on_c, 0, 73, 65
1, 90212, Note_on_c, 0, 76, 65
1, 90212, Note_on_c, 0, 85, 65
1, 90212, Note_on_c, 0, 28, 65
1, 90238, Note_off_c, 0, 42, 0
1, 90722, Note_on_c, 0, 35, 65
1, 91201, Note_off_c, 0, 35, 0
1, 91232, Note_on_c, 0, 71, 65
1, 91232, Note_on_c, 0, 28, 65
1, 91232, Note_on_c, 0, 75, 65
1, 91232, Note_on_c, 0, 83, 65
1, 91261, Note_off_c, 0, 28, 0
1, 91261, Note_off_c, 0, 85, 0
1, 91261, Note_off_c, 0, 76, 0
1, 91261, Note_off_c, 0, 73, 0
1, 91261, Note_off_c, 0, 47, 0
1, 91737, Note_on_c, 0, 40, 65
1, 91767, Note_off_c, 0, 28, 0
1, 92246, Note_off_c, 0, 83, 0
1, 92246, Note_off_c, 0, 75, 0
1, 92246, Note_off_c, 0, 71, 0
1, 92247, Note_on_c, 0, 71, 65
1, 92247, Note_on_c, 0, 75, 65
1, 92247, Note_on_c, 0, 83, 65
1, 92277, Note_off_c, 0, 40, 0
1, 92726, Note_off_c, 0, 75, 0
1, 92726, Note_off_c, 0, 71, 0
1, 92756, Note_off_c, 0, 83, 0
1, 92757, Note_on_c, 0, 71, 65
1, 92757, Note_on_c, 0, 83, 65
1, 92757, Note_on_c, 0, 40, 65
1, 92757, Note_on_c, 0, 75, 65
1, 93236, Note_off_c, 0, 71, 0
1, 93236, Note_off_c, 0, 75, 0
1, 93236, Note_off_c, 0, 40, 0
1, 93266, Note_off_c, 0, 83, 0
1, 93267, Note_on_c, 0, 40, 65
1, 93746, Note_off_c, 0, 40, 0
1, 93777, Note_on_c, 0, 80, 65
1, 93777, Note_on_c, 0, 64, 65
1, 93777, Note_on_c, 0, 32, 65
1, 93777, Note_on_c, 0, 71, 65
1, 94287, Note_on_c, 0, 80, 65
1, 94287, Note_on_c, 0, 42, 65
1, 94287, Note_on_c, 0, 71, 65
1, 94287, Note_on_c, 0, 68, 65
1, 94317, Note_off_c, 0, 32, 0
1, 94761, Note_off_c, 0, 68, 0
1, 94761, Note_off_c, 0, 71, 0
1, 94791, Note_off_c, 0, 80, 0
1, 94791, Note_off_c, 0, 64, 0
1, 94791, Note_off_c, 0, 71, 0
1, 94791, Note_off_c, 0, 80, 0
1, 94792, Note_on_c, 0, 30, 65
1, 94792, Note_on_c, 0, 73, 65
1, 94792, Note_on_c, 0, 85, 65
1, 94822, Note_off_c, 0, 42, 0
1, 95266, Note_off_c, 0, 73, 0
1, 95296, Note_off_c, 0, 85, 0
1, 95297, Note_on_c, 0, 73, 65
1, 95297, Note_on_c, 0, 76, 65
1, 95297, Note_on_c, 0, 88, 65
1, 95297, Note_on_c, 0, 40, 65
1, 95327, Note_off_c, 0, 30, 0
1, 95773, Note_off_c, 0, 73, 0
1, 95773, Note_off_c, 0, 76, 0
1, 95803, Note_off_c, 0, 88, 0
1, 95808, Note_on_c, 0, 75, 65
1, 95808, Note_on_c, 0, 83, 65
1, 95808, Note_on_c, 0, 71, 65
1, 95808, Note_on_c, 0, 28, 65
1, 95834, Note_off_c, 0, 40, 0
1, 96350, Note_on_c, 0, 40, 65
1, 96380, Note_off_c, 0, 28, 0
1, 96857, Note_off_c, 0, 71, 0
1, 96857, Note_off_c, 0, 75, 0
1, 96857, Note_off_c, 0, 83, 0
1, 96858, Note_on_c, 0, 47, 65
1, 96858, Note_on_c, 0, 71, 65
1, 96858, Note_on_c, 0, 35, 65
1, 96858, Note_on_c, 0, 66, 65
1, 96888, Note_off_c, 0, 40, 0
1, 97362, Note_off_c, 0, 35, 0
1, 97362, Note_off_c, 0, 47, 0
1, 97363, Note_on_c, 0, 35, 65
1, 97872, Note_off_c, 0, 71, 0
1, 97872, Note_off_c, 0, 66, 0
1, 97873, Note_on_c, 0, 35, 65
1, 97900, Note_off_c, 0, 35, 0
1, 98415, Note_on_c, 0, 47, 65
1, 98447, Note_off_c, 0, 35, 0
1, 98925, Note_on_c, 0, 37, 65
1, 98955, Note_off_c, 0, 47, 0
1, 99428, Note_on_c, 0, 49, 65
1, 99458, Note_off_c, 0, 37, 0
1, 99938, Note_on_c, 0, 37, 65
1, 99968, Note_off_c, 0, 49, 0
1, 100448, Note_on_c, 0, 49, 65
1, 100478, Note_off_c, 0, 37, 0
1, 100943, Note_on_c, 0, 49, 65
1, 100984, Note_off_c, 0, 49, 0
1, 101404, Note_off_c, 0, 49, 0
1, 101455, Note_on_c, 0, 42, 65
1, 101916, Note_off_c, 0, 42, 0
1, 101967, Note_on_c, 0, 40, 65
1, 102428, Note_off_c, 0, 40, 0
1, 102479, Note_on_c, 0, 35, 65
1, 102940, Note_off_c, 0, 35, 0
1, 102991, Note_on_c, 0, 44, 65
1, 103469, Note_off_c, 0, 44, 0
1, 103501, Note_on_c, 0, 32, 65
1, 103974, Note_off_c, 0, 32, 0
1, 104004, Note_on_c, 0, 40, 65
1, 104484, Note_off_c, 0, 40, 0
1, 104514, Note_on_c, 0, 37, 65
1, 104990, Note_off_c, 0, 37, 0
1, 105024, Note_on_c, 0, 30, 65
1, 105497, Note_off_c, 0, 30, 0
1, 105527, Note_on_c, 0, 40, 65
1, 106007, Note_off_c, 0, 40, 0
1, 106037, Note_on_c, 0, 33, 65
1, 106517, Note_off_c, 0, 33, 0
1, 106547, Note_on_c, 0, 45, 65
1, 107023, Note_off_c, 0, 45, 0
1, 107053, Note_on_c, 0, 33, 65
1, 107526, Note_off_c, 0, 33, 0
1, 107558, Note_on_c, 0, 45, 65
1, 108034, Note_off_c, 0, 45, 0
1, 108068, Note_on_c, 0, 35, 65
1, 108580, Note_off_c, 0, 35, 0
1, 108610, Note_on_c, 0, 47, 65
1, 109088, Note_off_c, 0, 47, 0
1, 109120, Note_on_c, 0, 35, 65
1, 109593, Note_off_c, 0, 35, 0
1, 109623, Note_on_c, 0, 47, 65
1, 110103, Note_off_c, 0, 47, 0
1, 110133, Note_on_c, 0, 33, 65
1, 110613, Note_off_c, 0, 33, 0
1, 110643, Note_on_c, 0, 45, 65
1, 111119, Note_off_c, 0, 45, 0
1, 111149, Note_on_c, 0, 33, 65
1, 111622, Note_off_c, 0, 33, 0
1, 111654, Note_on_c, 0, 45, 65
1, 112130, Note_off_c, 0, 45, 0
1, 112164, Note_on_c, 0, 33, 65
1, 112676, Note_off_c, 0, 33, 0
1, 112706, Note_on_c, 0, 45, 65
1, 113184, Note_off_c, 0, 45, 0
1, 113216, Note_on_c, 0, 33, 65
1, 113216, Note_on_c, 0, 45, 65
1, 113689, Note_off_c, 0, 33, 0
1, 113689, Note_off_c, 0, 45, 0
1, 113719, Note_on_c, 0, 33, 65
1, 113719, Note_on_c, 0, 45, 65
1, 114199, Note_off_c, 0, 33, 0
1, 114199, Note_off_c, 0, 45, 0
1, 114229, Note_on_c, 0, 45, 65
1, 114229, Note_on_c, 0, 33, 65
1, 114709, Note_off_c, 0, 33, 0
1, 114709, Note_off_c, 0, 45, 0
1, 114739, Note_on_c, 0, 33, 65
1, 114739, Note_on_c, 0, 45, 65
1, 115219, Note_off_c, 0, 33, 0
1, 115219, Note_off_c, 0, 45, 0
1, 115249, Note_on_c, 0, 33, 65
1, 115249, Note_on_c, 0, 45, 65
1, 115725, Note_off_c, 0, 33, 0
1, 115725, Note_off_c, 0, 45, 0
1, 115755, Note_on_c, 0, 43, 65
1, 115755, Note_on_c, 0, 33, 65
1, 116228, Note_off_c, 0, 33, 0
1, 116233, Note_off_c, 0, 43, 0
1, 116265, Note_on_c, 0, 33, 65
1, 116265, Note_on_c, 0, 45, 65
1, 116738, Note_off_c, 0, 45, 0
1, 116738, Note_off_c, 0, 33, 0
1, 116768, Note_on_c, 0, 37, 65
1, 117248, Note_off_c, 0, 37, 0
1, 117278, Note_on_c, 0, 40, 65
1, 117278, Note_on_c, 0, 28, 65
1, 118289, Note_off_c, 0, 28, 0
1, 118289, Note_off_c, 0, 40, 0
1, 118293, Note_on_c, 0, 40, 65
1, 118293, Note_on_c, 0, 76, 65
1, 118293, Note_on_c, 0, 66, 65
1, 118835, Note_on_c, 0, 52, 65
1, 118865, Note_off_c, 0, 40, 0
1, 119342, Note_off_c, 0, 66, 0
1, 119342, Note_off_c, 0, 76, 0
1, 119345, Note_on_c, 0, 40, 65
1, 119373, Note_off_c, 0, 52, 0
1, 119855, Note_on_c, 0, 40, 65
1, 119885, Note_off_c, 0, 40, 0
1, 120360, Note_on_c, 0, 28, 65
1, 120390, Note_off_c, 0, 40, 0
1, 120865, Note_on_c, 0, 44, 65
1, 120895, Note_off_c, 0, 28, 0
1, 121376, Note_on_c, 0, 71, 65
1, 121376, Note_on_c, 0, 83, 65
1, 121376, Note_on_c, 0, 32, 65
1, 121376, Note_on_c, 0, 75, 65
1, 121402, Note_off_c, 0, 44, 0
1, 121918, Note_on_c, 0, 40, 65
1, 121948, Note_off_c, 0, 32, 0
1, 122425, Note_off_c, 0, 83, 0
1, 122425, Note_off_c, 0, 75, 0
1, 122425, Note_off_c, 0, 71, 0
1, 122426, Note_on_c, 0, 40, 65
1, 122426, Note_on_c, 0, 83, 65
1, 122426, Note_on_c, 0, 71, 65
1, 122456, Note_off_c, 0, 40, 0
1, 122903, Note_off_c, 0, 40, 0
1, 122935, Note_off_c, 0, 83, 0
1, 122936, Note_on_c, 0, 34, 65
1, 122966, Note_off_c, 0, 71, 0
1, 123441, Note_on_c, 0, 42, 65
1, 123510, Note_off_c, 0, 34, 0
1, 123946, Note_on_c, 0, 46, 65
1, 123946, Note_on_c, 0, 83, 65
1, 123946, Note_on_c, 0, 71, 65
1, 123986, Note_off_c, 0, 42, 0
1, 124425, Note_off_c, 0, 71, 0
1, 124455, Note_off_c, 0, 83, 0
1, 124456, Note_on_c, 0, 68, 65
1, 124456, Note_on_c, 0, 71, 65
1, 124456, Note_on_c, 0, 80, 65
1, 124456, Note_on_c, 0, 44, 65
1, 124486, Note_off_c, 0, 46, 0
1, 124930, Note_off_c, 0, 68, 0
1, 124930, Note_off_c, 0, 71, 0
1, 124960, Note_off_c, 0, 80, 0
1, 124961, Note_on_c, 0, 88, 65
1, 124961, Note_on_c, 0, 71, 65
1, 124961, Note_on_c, 0, 32, 65
1, 124961, Note_on_c, 0, 66, 65
1, 124961, Note_on_c, 0, 76, 65
1, 124991, Note_off_c, 0, 44, 0
1, 125466, Note_on_c, 0, 40, 65
1, 125466, Note_on_c, 0, 40, 65
1, 125466, Note_on_c, 0, 32, 65
1, 125496, Note_off_c, 0, 32, 0
1, 125972, Note_off_c, 0, 40, 0
1, 125972, Note_off_c, 0, 88, 0
1, 125972, Note_off_c, 0, 76, 0
1, 125972, Note_off_c, 0, 71, 0
1, 125973, Note_off_c, 0, 40, 0
1, 125975, Note_off_c, 0, 66, 0
1, 126003, Note_off_c, 0, 32, 0
1, 126519, Note_on_c, 0, 30, 65
1, 127530, Note_off_c, 0, 30, 0
1, 127571, Note_on_c, 0, 35, 65
1, 127571, Note_on_c, 0, 76, 65
1, 128076, Note_on_c, 0, 39, 65
1, 128106, Note_off_c, 0, 35, 0
1, 128582, Note_off_c, 0, 76, 0
1, 128586, Note_on_c, 0, 32, 65
1, 128614, Note_off_c, 0, 39, 0
1, 129128, Note_on_c, 0, 40, 65
1, 129160, Note_off_c, 0, 32, 0
1, 129638, Note_on_c, 0, 28, 65
1, 129668, Note_off_c, 0, 40, 0
1, 130141, Note_on_c, 0, 40, 65
1, 130171, Note_off_c, 0, 28, 0
1, 130651, Note_on_c, 0, 30, 65
1, 130681, Note_off_c, 0, 40, 0
1, 131161, Note_on_c, 0, 44, 65
1, 131191, Note_off_c, 0, 30, 0
1, 131667, Note_on_c, 0, 32, 65
1, 131697, Note_off_c, 0, 44, 0
1, 132172, Note_on_c, 0, 42, 65
1, 132202, Note_off_c, 0, 32, 0
1, 132682, Note_on_c, 0, 33, 65
1, 132710, Note_off_c, 0, 42, 0
1, 133224, Note_on_c, 0, 45, 65
1, 133256, Note_off_c, 0, 33, 0
1, 133734, Note_on_c, 0, 33, 65
1, 133764, Note_off_c, 0, 45, 0
1, 134237, Note_on_c, 0, 45, 65
1, 134267, Note_off_c, 0, 33, 0
1, 134747, Note_on_c, 0, 33, 65
1, 134777, Note_off_c, 0, 45, 0
1, 135257, Note_on_c, 0, 45, 65
1, 135287, Note_off_c, 0, 33, 0
1, 135763, Note_on_c, 0, 33, 65
1, 135793, Note_off_c, 0, 45, 0
1, 136268, Note_on_c, 0, 45, 65
1, 136298, Note_off_c, 0, 33, 0
1, 136778, Note_on_c, 0, 32, 65
1, 136806, Note_off_c, 0, 45, 0
1, 137320, Note_on_c, 0, 44, 65
1, 137352, Note_off_c, 0, 32, 0
1, 137830, Note_on_c, 0, 32, 65
1, 137860, Note_off_c, 0, 44, 0
1, 138333, Note_on_c, 0, 44, 65
1, 138363, Note_off_c, 0, 32, 0
1, 138843, Note_on_c, 0, 32, 65
1, 138873, Note_off_c, 0, 44, 0
1, 139353, Note_on_c, 0, 44, 65
1, 139383, Note_off_c, 0, 32, 0
1, 139889, Note_off_c, 0, 44, 0
1, 139890, End_track
0, 0, End_of_file
